# Blender v2.79 (sub 0) OBJ File: 'thumbstick.blend'
# www.blender.org
mtllib button.mtl
o Cylinder.001_Cylinder.002
v 0.000000 0.022151 0.000000
v 0.000000 -0.119667 0.581812
v -0.236644 -0.119667 0.531512
v -0.432370 -0.119667 0.389308
v -0.553336 -0.119667 0.179790
v -0.578625 -0.119667 -0.060816
v -0.503864 -0.119667 -0.290906
v -0.341980 -0.119667 -0.470696
v -0.120965 -0.119667 -0.569098
v 0.120966 -0.119667 -0.569098
v 0.341980 -0.119667 -0.470696
v 0.503864 -0.119667 -0.290906
v 0.578625 -0.119667 -0.060816
v 0.553336 -0.119667 0.179790
v 0.432370 -0.119667 0.389308
v 0.236644 -0.119667 0.531512
v 0.000000 -0.089620 0.581812
v -0.236644 -0.089620 0.531512
v -0.432370 -0.089620 0.389308
v -0.553336 -0.089620 0.179790
v -0.578625 -0.089620 -0.060816
v -0.503864 -0.089620 -0.290906
v -0.341980 -0.089620 -0.470696
v -0.120965 -0.089620 -0.569098
v 0.120966 -0.089620 -0.569098
v 0.341980 -0.089620 -0.470696
v 0.503864 -0.089620 -0.290906
v 0.578625 -0.089620 -0.060816
v 0.553336 -0.089620 0.179790
v 0.432370 -0.089620 0.389308
v 0.236644 -0.089620 0.531512
v -0.070028 0.029303 0.157285
v -0.127948 0.029303 0.115205
v -0.163744 0.029303 0.053204
v -0.171227 0.029303 -0.017997
v -0.149104 0.029303 -0.086085
v -0.101199 0.029303 -0.139289
v -0.035796 0.029303 -0.168408
v 0.035796 0.029303 -0.168408
v 0.101199 0.029303 -0.139289
v 0.149104 0.029303 -0.086085
v 0.171227 0.029303 -0.017997
v 0.163744 0.029303 0.053204
v 0.127948 0.029303 0.115205
v 0.070028 0.029303 0.157286
v 0.000000 0.029303 0.172170
v 0.000000 0.048806 0.396041
v -0.161085 0.048806 0.361802
v -0.294316 0.048806 0.265003
v -0.376658 0.048806 0.122384
v -0.393872 0.048806 -0.041398
v -0.342982 0.048806 -0.198021
v -0.232787 0.048806 -0.320404
v -0.082342 0.048806 -0.387387
v 0.082342 0.048806 -0.387387
v 0.232787 0.048806 -0.320404
v 0.342982 0.048806 -0.198021
v 0.393872 0.048806 -0.041398
v 0.376658 0.048806 0.122384
v 0.294316 0.048806 0.265003
v 0.161084 0.048806 0.361802
v 0.000000 0.089552 0.581812
v -0.236644 0.089552 0.531512
v -0.432370 0.089552 0.389308
v -0.553336 0.089552 0.179790
v -0.578625 0.089552 -0.060816
v -0.503864 0.089552 -0.290906
v -0.341980 0.089552 -0.470696
v -0.120965 0.089552 -0.569098
v 0.120966 0.089552 -0.569098
v 0.341980 0.089552 -0.470696
v 0.503864 0.089552 -0.290906
v 0.578625 0.089552 -0.060816
v 0.553336 0.089552 0.179790
v 0.432370 0.089552 0.389308
v 0.236644 0.089552 0.531512
v 0.000000 0.069881 0.581812
v -0.236644 0.069881 0.531512
v -0.432370 0.069881 0.389308
v -0.553336 0.069881 0.179790
v -0.578625 0.069881 -0.060816
v -0.503864 0.069881 -0.290906
v -0.341980 0.069881 -0.470696
v -0.120965 0.069881 -0.569098
v 0.120966 0.069881 -0.569098
v 0.341980 0.069881 -0.470696
v 0.503864 0.069881 -0.290906
v 0.578625 0.069881 -0.060816
v 0.553336 0.069881 0.179790
v 0.432370 0.069881 0.389308
v 0.236644 0.069881 0.531512
vt 0.975528 0.654508
vt 0.002739 0.447736
vt 0.500000 1.000000
vt 0.871572 0.834565
vt 0.703368 0.956773
vt 0.128428 0.834565
vt 0.296632 0.956773
vt 0.024472 0.654509
vt 0.206107 0.095492
vt 0.066987 0.250000
vt 0.396044 0.010926
vt 0.603956 0.010926
vt 0.933013 0.250000
vt 0.793893 0.095491
vt 0.997261 0.447736
vt 0.500000 1.047017
vt 0.500000 0.976714
vt 0.703368 0.976714
vt 0.703368 1.047017
vt 0.871572 0.976714
vt 0.834565 1.047017
vt 0.834565 0.976714
vt 0.654508 0.976714
vt 0.654508 1.047017
vt 0.447736 0.976714
vt 0.447736 1.047017
vt 0.250000 0.976714
vt 0.250000 1.047017
vt 0.095491 0.976714
vt 0.793893 1.047017
vt 0.793893 0.976714
vt 0.603956 0.976714
vt 0.603956 1.047017
vt 0.396044 0.976714
vt 0.396044 1.047017
vt 0.206107 0.976714
vt 0.095492 1.047017
vt 0.095492 0.976714
vt 0.250000 0.976714
vt 0.250000 1.047017
vt 0.447736 0.976714
vt 0.447736 1.047017
vt 0.654509 0.976714
vt 0.654509 1.047017
vt 0.834565 0.976714
vt 0.128428 1.047017
vt 0.128428 0.976714
vt 0.296632 0.976714
vt 0.296632 1.047017
vt 0.296632 0.603526
vt 0.500000 0.603526
vt 0.128428 0.603526
vt 0.654509 0.603526
vt 0.834565 0.603526
vt 0.447736 0.603526
vt 0.250000 0.603526
vt 0.095492 0.603526
vt 0.396044 0.603526
vt 0.206107 0.603526
vt 0.603956 0.603526
vt 0.793893 0.603526
vt 0.250000 0.603526
vt 0.095491 0.603526
vt 0.447736 0.603526
vt 0.654508 0.603526
vt 0.834565 0.603526
vt 0.703368 0.603526
vt 0.871572 0.603526
vt 0.500000 0.500000
vt 0.560181 0.635169
vt 0.500000 0.647961
vt 0.609956 0.599005
vt 0.640719 0.545722
vt 0.647150 0.484534
vt 0.628138 0.426020
vt 0.586969 0.380297
vt 0.530763 0.355273
vt 0.469237 0.355273
vt 0.413031 0.380297
vt 0.371862 0.426020
vt 0.352850 0.484534
vt 0.359281 0.545722
vt 0.390044 0.599005
vt 0.439819 0.635169
vt 0.638434 0.810927
vt 0.752931 0.727740
vt 0.823694 0.605174
vt 0.794753 0.329824
vt 0.570763 0.167086
vt 0.299946 0.224650
vt 0.205247 0.329824
vt 0.176306 0.605175
vt 0.247069 0.727740
vt 0.361567 0.810927
vt 0.500000 1.000000
vt 0.500000 0.840352
vt 0.703368 0.956773
vt 0.871572 0.834565
vt 0.975528 0.654508
vt 0.838487 0.464424
vt 0.997261 0.447736
vt 0.933013 0.250000
vt 0.700054 0.224650
vt 0.603956 0.010926
vt 0.429237 0.167086
vt 0.396044 0.010926
vt 0.206107 0.095492
vt 0.066987 0.250000
vt 0.161513 0.464424
vt 0.002739 0.447736
vt 0.128428 0.834565
vt 0.296632 0.956773
vt 0.500000 0.557501
vt 0.703368 0.557501
vt 0.871572 0.557501
vt 0.834565 0.557501
vt 0.654508 0.557501
vt 0.447736 0.557501
vt 0.250000 0.557501
vt 0.095491 0.557501
vt 0.793893 0.557501
vt 0.603956 0.557501
vt 0.396044 0.557501
vt 0.206107 0.557501
vt 0.095492 0.557501
vt 0.250000 0.557501
vt 0.447736 0.557501
vt 0.654509 0.557501
vt 0.834565 0.557501
vt 0.128428 0.557501
vt 0.296632 0.557501
vt 0.871572 1.047017
vt 0.095491 1.047017
vt 0.206107 1.047017
vt 0.834565 1.047017
vt 0.793893 0.095491
vt 0.024472 0.654509
vn 0.0000 -1.0000 0.0000
vn 0.0000 -0.6631 0.7485
vn 0.0000 0.0000 1.0000
vn -0.4067 0.0000 0.9135
vn -0.3044 -0.6631 0.6837
vn -0.7431 0.0000 0.6691
vn -0.5562 -0.6631 0.5008
vn -0.9510 0.0000 0.3090
vn -0.7118 -0.6631 0.2313
vn -0.9945 0.0000 -0.1045
vn -0.7443 -0.6631 -0.0782
vn -0.8660 0.0000 -0.5000
vn -0.6482 -0.6631 -0.3742
vn -0.5878 0.0000 -0.8090
vn -0.4399 -0.6631 -0.6055
vn -0.2079 0.0000 -0.9781
vn -0.1556 -0.6631 -0.7321
vn 0.2079 0.0000 -0.9781
vn 0.1556 -0.6631 -0.7321
vn 0.5878 0.0000 -0.8090
vn 0.4399 -0.6631 -0.6055
vn 0.8660 0.0000 -0.5000
vn 0.6482 -0.6631 -0.3742
vn 0.9945 0.0000 -0.1045
vn 0.7443 -0.6631 -0.0782
vn 0.9510 0.0000 0.3090
vn 0.7118 -0.6631 0.2313
vn 0.7431 0.0000 0.6691
vn 0.5562 -0.6631 0.5008
vn 0.4067 0.0000 0.9135
vn 0.3044 -0.6631 0.6837
vn 0.0000 1.0000 0.0000
vn 0.0273 0.9977 -0.0613
vn 0.0000 0.9977 -0.0672
vn 0.0499 0.9977 -0.0449
vn 0.0639 0.9977 -0.0208
vn 0.0668 0.9977 0.0070
vn 0.0582 0.9977 0.0336
vn 0.0395 0.9977 0.0543
vn 0.0139 0.9977 0.0657
vn -0.0139 0.9977 0.0657
vn -0.0395 0.9977 0.0543
vn -0.0582 0.9977 0.0336
vn -0.0668 0.9977 0.0070
vn -0.0639 0.9977 -0.0208
vn -0.0499 0.9977 -0.0449
vn -0.0273 0.9977 -0.0613
vn 0.0647 0.9872 -0.1454
vn 0.1183 0.9872 -0.1065
vn 0.1514 0.9872 -0.0492
vn 0.1379 0.9872 0.0796
vn 0.0331 0.9872 0.1557
vn -0.0936 0.9872 0.1288
vn -0.1379 0.9872 0.0796
vn -0.1514 0.9872 -0.0492
vn -0.1183 0.9872 -0.1065
vn -0.0647 0.9872 -0.1454
vn 0.0000 0.7311 0.6822
vn 0.0000 0.9872 -0.1592
vn -0.2775 0.7311 0.6232
vn -0.5070 0.7311 0.4565
vn -0.6488 0.7311 0.2108
vn 0.1583 0.9872 0.0166
vn -0.6785 0.7311 -0.0713
vn -0.5908 0.7311 -0.3411
vn 0.0936 0.9872 0.1288
vn -0.1418 0.7311 -0.6673
vn -0.0331 0.9872 0.1557
vn 0.1418 0.7311 -0.6673
vn 0.4010 0.7311 -0.5519
vn 0.5908 0.7311 -0.3411
vn -0.1583 0.9872 0.0166
vn 0.6785 0.7311 -0.0713
vn 0.5070 0.7311 0.4565
vn 0.2775 0.7311 0.6232
vn -0.4010 0.7311 -0.5519
vn 0.6488 0.7311 0.2108
usemtl None
s off
f 5/1/1 13/2/1 2/3/1
f 4/4/1 2/3/1 3/5/1
f 2/3/1 15/6/1 16/7/1
f 15/6/1 13/2/1 14/8/1
f 13/2/1 11/9/1 12/10/1
f 11/9/1 13/2/1 10/11/1
f 10/11/1 13/2/1 9/12/1
f 9/12/1 7/13/1 8/14/1
f 7/13/1 5/1/1 6/15/1
f 5/1/1 2/3/1 4/4/1
f 2/3/1 13/2/1 15/6/1
f 9/12/1 13/2/1 7/13/1
f 7/13/1 13/2/1 5/1/1
s 1
f 2/16/2 17/17/3 18/18/4
f 3/19/5 18/18/4 19/20/6
f 4/21/7 19/22/6 20/23/8
f 5/24/9 20/23/8 21/25/10
f 6/26/11 21/25/10 22/27/12
f 7/28/13 22/27/12 23/29/14
f 8/30/15 23/31/14 24/32/16
f 9/33/17 24/32/16 25/34/18
f 10/35/19 25/34/18 26/36/20
f 11/37/21 26/38/20 27/39/22
f 12/40/23 27/39/22 28/41/24
f 13/42/25 28/41/24 29/43/26
f 14/44/27 29/43/26 30/45/28
f 15/46/29 30/47/28 31/48/30
f 16/49/31 31/48/30 17/17/3
f 31/48/30 91/50/30 77/51/3
f 30/47/28 90/52/28 91/50/30
f 29/43/26 89/53/26 90/54/28
f 28/41/24 88/55/24 89/53/26
f 27/39/22 87/56/22 88/55/24
f 26/38/20 86/57/20 87/56/22
f 25/34/18 85/58/18 86/59/20
f 24/32/16 84/60/16 85/58/18
f 23/31/14 83/61/14 84/60/16
f 22/27/12 82/62/12 83/63/14
f 21/25/10 81/64/10 82/62/12
f 20/23/8 80/65/8 81/64/10
f 19/22/6 79/66/6 80/65/8
f 18/18/4 78/67/4 79/68/6
f 17/17/3 77/51/3 78/67/4
f 1/69/32 32/70/33 46/71/34
f 1/69/32 33/72/35 32/70/33
f 1/69/32 34/73/36 33/72/35
f 1/69/32 35/74/37 34/73/36
f 1/69/32 36/75/38 35/74/37
f 1/69/32 37/76/39 36/75/38
f 1/69/32 38/77/40 37/76/39
f 1/69/32 39/78/41 38/77/40
f 1/69/32 40/79/42 39/78/41
f 1/69/32 41/80/43 40/79/42
f 1/69/32 42/81/44 41/80/43
f 1/69/32 43/82/45 42/81/44
f 1/69/32 44/83/46 43/82/45
f 1/69/32 45/84/47 44/83/46
f 1/69/32 46/71/34 45/84/47
f 46/71/34 32/70/33 48/85/48
f 32/70/33 33/72/35 49/86/49
f 49/86/49 33/72/35 34/73/36
f 50/87/50 34/73/36 35/74/37
f 35/74/37 36/75/38 52/88/51
f 52/88/51 36/75/38 37/76/39
f 37/76/39 38/77/40 54/89/52
f 54/89/52 38/77/40 39/78/41
f 39/78/41 40/79/42 56/90/53
f 56/90/53 40/79/42 41/80/43
f 57/91/54 41/80/43 42/81/44
f 42/81/44 43/82/45 59/92/55
f 59/92/55 43/82/45 44/83/46
f 60/93/56 44/83/46 45/84/47
f 61/94/57 45/84/47 46/71/34
f 62/95/58 47/96/59 48/85/48
f 63/97/60 48/85/48 49/86/49
f 64/98/61 49/86/49 50/87/50
f 65/99/62 50/87/50 51/100/63
f 66/101/64 51/100/63 52/88/51
f 67/102/65 52/88/51 53/103/66
f 53/103/66 54/89/52 69/104/67
f 69/104/67 54/89/52 55/105/68
f 70/106/69 55/105/68 56/90/53
f 71/107/70 56/90/53 57/91/54
f 72/108/71 57/91/54 58/109/72
f 73/110/73 58/109/72 59/92/55
f 59/92/55 60/93/56 75/111/74
f 75/111/74 60/93/56 61/94/57
f 76/112/75 61/94/57 47/96/59
f 77/51/3 62/113/58 63/114/60
f 78/67/4 63/114/60 64/115/61
f 79/66/6 64/116/61 65/117/62
f 80/65/8 65/117/62 66/118/64
f 81/64/10 66/118/64 67/119/65
f 82/62/12 67/119/65 68/120/76
f 83/61/14 68/121/76 69/122/67
f 84/60/16 69/122/67 70/123/69
f 85/58/18 70/123/69 71/124/70
f 86/57/20 71/125/70 72/126/71
f 87/56/22 72/126/71 73/127/73
f 88/55/24 73/127/73 74/128/77
f 89/53/26 74/128/77 75/129/74
f 90/52/28 75/130/74 76/131/75
f 91/50/30 76/131/75 62/113/58
f 2/16/2 18/18/4 3/19/5
f 3/19/5 19/20/6 4/132/7
f 4/21/7 20/23/8 5/24/9
f 5/24/9 21/25/10 6/26/11
f 6/26/11 22/27/12 7/28/13
f 7/28/13 23/29/14 8/133/15
f 8/30/15 24/32/16 9/33/17
f 9/33/17 25/34/18 10/35/19
f 10/35/19 26/36/20 11/134/21
f 11/37/21 27/39/22 12/40/23
f 12/40/23 28/41/24 13/42/25
f 13/42/25 29/43/26 14/44/27
f 14/44/27 30/45/28 15/135/29
f 15/46/29 31/48/30 16/49/31
f 16/49/31 17/17/3 2/16/2
f 31/48/30 77/51/3 17/17/3
f 30/47/28 91/50/30 31/48/30
f 29/43/26 90/54/28 30/45/28
f 28/41/24 89/53/26 29/43/26
f 27/39/22 88/55/24 28/41/24
f 26/38/20 87/56/22 27/39/22
f 25/34/18 86/59/20 26/36/20
f 24/32/16 85/58/18 25/34/18
f 23/31/14 84/60/16 24/32/16
f 22/27/12 83/63/14 23/29/14
f 21/25/10 82/62/12 22/27/12
f 20/23/8 81/64/10 21/25/10
f 19/22/6 80/65/8 20/23/8
f 18/18/4 79/68/6 19/20/6
f 17/17/3 78/67/4 18/18/4
f 46/71/34 48/85/48 47/96/59
f 32/70/33 49/86/49 48/85/48
f 49/86/49 34/73/36 50/87/50
f 50/87/50 35/74/37 51/100/63
f 35/74/37 52/88/51 51/100/63
f 52/88/51 37/76/39 53/103/66
f 37/76/39 54/89/52 53/103/66
f 54/89/52 39/78/41 55/105/68
f 39/78/41 56/90/53 55/105/68
f 56/90/53 41/80/43 57/91/54
f 57/91/54 42/81/44 58/109/72
f 42/81/44 59/92/55 58/109/72
f 59/92/55 44/83/46 60/93/56
f 60/93/56 45/84/47 61/94/57
f 61/94/57 46/71/34 47/96/59
f 62/95/58 48/85/48 63/97/60
f 63/97/60 49/86/49 64/98/61
f 64/98/61 50/87/50 65/99/62
f 65/99/62 51/100/63 66/101/64
f 66/101/64 52/88/51 67/102/65
f 67/102/65 53/103/66 68/136/76
f 53/103/66 69/104/67 68/136/76
f 69/104/67 55/105/68 70/106/69
f 70/106/69 56/90/53 71/107/70
f 71/107/70 57/91/54 72/108/71
f 72/108/71 58/109/72 73/110/73
f 73/110/73 59/92/55 74/137/77
f 59/92/55 75/111/74 74/137/77
f 75/111/74 61/94/57 76/112/75
f 76/112/75 47/96/59 62/95/58
f 77/51/3 63/114/60 78/67/4
f 78/67/4 64/115/61 79/68/6
f 79/66/6 65/117/62 80/65/8
f 80/65/8 66/118/64 81/64/10
f 81/64/10 67/119/65 82/62/12
f 82/62/12 68/120/76 83/63/14
f 83/61/14 69/122/67 84/60/16
f 84/60/16 70/123/69 85/58/18
f 85/58/18 71/124/70 86/59/20
f 86/57/20 72/126/71 87/56/22
f 87/56/22 73/127/73 88/55/24
f 88/55/24 74/128/77 89/53/26
f 89/53/26 75/129/74 90/54/28
f 90/52/28 76/131/75 91/50/30
f 91/50/30 62/113/58 77/51/3
