# Blender v2.79 (sub 0) OBJ File: 'flag.blend'
# www.blender.org
mtllib flag.mtl
o Plane
v 0.020712 1.322885 0.001946
v 1.009880 1.616223 0.093409
v 0.020712 1.909560 0.001946
v 0.020712 1.825749 0.001946
v 0.020712 1.741939 0.001946
v 0.020712 1.658128 0.001946
v 0.020712 1.574317 0.001946
v 0.020712 1.490506 0.001946
v 0.020712 1.406696 0.001946
v 0.149291 1.346382 -0.107851
v 0.267549 1.400247 -0.156531
v 0.391342 1.447033 -0.129091
v 0.518690 1.488594 -0.045824
v 0.659790 1.546011 0.049274
v 0.825912 1.586188 0.106689
v 0.825912 1.646257 0.106689
v 0.659790 1.686434 0.049274
v 0.518690 1.743851 -0.045824
v 0.391342 1.785412 -0.129091
v 0.267549 1.832198 -0.156531
v 0.149291 1.886063 -0.107851
v 0.149291 1.423479 -0.107851
v 0.149291 1.500576 -0.107851
v 0.149291 1.577674 -0.107851
v 0.149291 1.654771 -0.107851
v 0.149291 1.731869 -0.107851
v 0.149291 1.808966 -0.107851
v 0.267549 1.461954 -0.156531
v 0.267549 1.523661 -0.156531
v 0.267549 1.585369 -0.156531
v 0.267549 1.647076 -0.156531
v 0.267549 1.708783 -0.156531
v 0.267549 1.770491 -0.156531
v 0.391342 1.495373 -0.129091
v 0.391342 1.543713 -0.129091
v 0.391342 1.592052 -0.129091
v 0.391342 1.640392 -0.129091
v 0.391342 1.688732 -0.129091
v 0.391342 1.737072 -0.129091
v 0.518690 1.525059 -0.045824
v 0.518690 1.561524 -0.045824
v 0.518690 1.597990 -0.045824
v 0.518690 1.634455 -0.045824
v 0.518690 1.670920 -0.045824
v 0.518690 1.707386 -0.045824
v 0.659790 1.566072 0.049274
v 0.659790 1.586132 0.049274
v 0.659790 1.606192 0.049274
v 0.659790 1.626253 0.049274
v 0.659790 1.646313 0.049274
v 0.659790 1.666373 0.049274
v 0.825912 1.594795 0.106689
v 0.825912 1.603373 0.106689
v 0.825912 1.611940 0.106689
v 0.825912 1.620505 0.106689
v 0.825912 1.629072 0.106689
v 0.825912 1.637650 0.106689
v 0.019014 1.406696 0.021412
v 0.019014 1.322885 0.021412
v 0.824213 1.586188 0.126154
v 1.008181 1.616223 0.112875
v 0.147592 1.886063 -0.088386
v 0.019014 1.909560 0.021412
v 0.019014 1.825749 0.021412
v 0.019014 1.741939 0.021412
v 0.019014 1.658128 0.021412
v 0.019014 1.574317 0.021412
v 0.019014 1.490506 0.021412
v 0.147592 1.346382 -0.088386
v 0.265850 1.400247 -0.137066
v 0.389644 1.447033 -0.109625
v 0.516992 1.488594 -0.026358
v 0.658091 1.546011 0.068739
v 0.824213 1.646257 0.126154
v 0.658091 1.686434 0.068739
v 0.516992 1.743851 -0.026358
v 0.389644 1.785412 -0.109625
v 0.265850 1.832198 -0.137066
v 0.147592 1.808966 -0.088386
v 0.147592 1.423479 -0.088386
v 0.147592 1.500576 -0.088386
v 0.147592 1.577674 -0.088386
v 0.147592 1.654771 -0.088386
v 0.147592 1.731869 -0.088386
v 0.265850 1.770491 -0.137066
v 0.265850 1.461954 -0.137066
v 0.265850 1.523661 -0.137066
v 0.265850 1.585369 -0.137066
v 0.265850 1.647076 -0.137066
v 0.265850 1.708783 -0.137066
v 0.389644 1.737072 -0.109625
v 0.389644 1.495373 -0.109625
v 0.389644 1.543713 -0.109625
v 0.389644 1.592052 -0.109625
v 0.389644 1.640392 -0.109625
v 0.389644 1.688732 -0.109625
v 0.516992 1.707386 -0.026358
v 0.516992 1.525059 -0.026358
v 0.516992 1.561524 -0.026358
v 0.516992 1.597990 -0.026358
v 0.516992 1.634455 -0.026358
v 0.516992 1.670920 -0.026358
v 0.658091 1.666373 0.068739
v 0.658091 1.566072 0.068739
v 0.658091 1.586132 0.068739
v 0.658091 1.606192 0.068739
v 0.658091 1.626253 0.068739
v 0.658091 1.646313 0.068739
v 0.824213 1.637650 0.126154
v 0.824213 1.594795 0.126154
v 0.824213 1.603373 0.126154
v 0.824213 1.611940 0.126154
v 0.824213 1.620505 0.126154
v 0.824213 1.629072 0.126154
v 0.000000 0.000000 -0.055280
v 0.000000 1.901823 -0.055280
v 0.039089 0.000000 -0.039089
v 0.039089 1.901823 -0.039089
v 0.055280 0.000000 -0.000000
v 0.055280 1.901823 0.000000
v 0.039089 -0.000000 0.039089
v 0.039089 1.901823 0.039089
v -0.000000 -0.000000 0.055280
v -0.000000 1.901823 0.055280
v -0.039089 -0.000000 0.039089
v -0.039089 1.901823 0.039089
v -0.055280 -0.000000 0.000000
v -0.055280 1.901823 0.000000
v -0.039089 0.000000 -0.039089
v -0.039089 1.901823 -0.039089
vt 0.872134 0.122910
vt 0.872134 0.119471
vt 0.945812 0.131469
vt 0.503904 0.047772
vt 0.571444 0.023680
vt 0.571444 0.054477
vt 0.622528 0.045197
vt 0.622528 0.069846
vt 0.673178 0.063885
vt 0.673178 0.083195
vt 0.733956 0.080487
vt 0.733956 0.095053
vt 0.801925 0.103423
vt 0.801925 0.111436
vt 0.503904 0.215165
vt 0.571443 0.239257
vt 0.503904 0.248643
vt 0.503904 0.181686
vt 0.571443 0.208460
vt 0.503904 0.148208
vt 0.571444 0.177664
vt 0.571444 0.116070
vt 0.571444 0.146867
vt 0.503904 0.114729
vt 0.571444 0.085273
vt 0.503904 0.081251
vt 0.622528 0.217741
vt 0.622528 0.193091
vt 0.622528 0.168442
vt 0.622528 0.143793
vt 0.622528 0.094495
vt 0.622528 0.119144
vt 0.673177 0.199052
vt 0.673178 0.179742
vt 0.673178 0.160433
vt 0.673178 0.121814
vt 0.673178 0.141123
vt 0.673178 0.102504
vt 0.733956 0.182450
vt 0.733956 0.167884
vt 0.733956 0.153318
vt 0.733956 0.138752
vt 0.733956 0.109619
vt 0.733956 0.124186
vt 0.801925 0.159515
vt 0.801925 0.151502
vt 0.801925 0.143488
vt 0.801925 0.135475
vt 0.801925 0.119449
vt 0.801925 0.127462
vt 0.872134 0.143466
vt 0.872134 0.140028
vt 0.872134 0.136602
vt 0.872134 0.133180
vt 0.872134 0.126336
vt 0.872134 0.129758
vt 0.127870 0.122909
vt 0.054187 0.131468
vt 0.127870 0.119471
vt 0.496099 0.047772
vt 0.428560 0.023680
vt 0.496099 0.014294
vt 0.428560 0.054477
vt 0.377476 0.045196
vt 0.377476 0.069846
vt 0.326826 0.063885
vt 0.326826 0.083195
vt 0.266048 0.080487
vt 0.266048 0.095053
vt 0.198079 0.103422
vt 0.198079 0.111435
vt 0.428560 0.239257
vt 0.496099 0.215165
vt 0.496099 0.248643
vt 0.428560 0.208460
vt 0.496099 0.181686
vt 0.428560 0.177664
vt 0.496099 0.148208
vt 0.428560 0.116070
vt 0.496099 0.114729
vt 0.428560 0.085273
vt 0.496099 0.081251
vt 0.377476 0.217740
vt 0.377476 0.193091
vt 0.377476 0.168442
vt 0.428560 0.146867
vt 0.377476 0.143793
vt 0.377476 0.094495
vt 0.326826 0.199052
vt 0.326826 0.179742
vt 0.326826 0.160433
vt 0.326826 0.121814
vt 0.377476 0.119144
vt 0.326826 0.102504
vt 0.266047 0.182450
vt 0.266047 0.167884
vt 0.266047 0.153318
vt 0.326826 0.141123
vt 0.266047 0.138751
vt 0.266048 0.109619
vt 0.198079 0.159514
vt 0.198079 0.151501
vt 0.198079 0.143488
vt 0.198079 0.135475
vt 0.266048 0.124185
vt 0.198079 0.119448
vt 0.127870 0.143465
vt 0.127870 0.140027
vt 0.127870 0.136601
vt 0.127870 0.133179
vt 0.198079 0.127462
vt 0.127870 0.126335
vt 0.127870 0.129757
vt 0.503904 0.014294
vt 0.374844 0.812513
vt 0.218693 0.710271
vt 0.272345 0.654217
vt 0.404697 0.750075
vt 0.218998 0.788813
vt 0.376410 0.686903
vt 0.272997 0.844821
vt 0.246370 0.686211
vt 0.349066 0.844821
vt 0.217409 0.749084
vt 0.403074 0.788820
vt 0.403404 0.710289
vt 0.246577 0.811818
vt 0.349780 0.654229
vt 0.310568 0.837474
vt 0.311518 0.664798
vt 0.000000 0.000000
vt 0.000000 0.000000
vt 0.000000 0.000000
vt 0.000000 0.000000
vt 0.000000 0.000000
vt 0.000000 0.000000
vt 0.000000 0.000000
vt 0.000000 0.000000
vt 0.000000 0.000000
vt 0.000000 0.000000
vt 0.000000 0.000000
vt 0.000000 0.000000
vt 0.000000 0.000000
vt 0.000000 0.000000
vt 0.000000 0.000000
vt 0.000000 0.000000
vt 0.000000 0.000000
vt 0.000000 0.000000
vt 0.000000 0.000000
vt 0.000000 0.000000
vt 0.000000 0.000000
vt 0.000000 0.000000
vt 0.000000 0.000000
vt 0.000000 0.000000
vt 0.000000 0.000000
vt 0.000000 0.000000
vt 0.000000 0.000000
vt 0.000000 0.000000
vt 0.000000 0.000000
vt 0.000000 0.000000
vt 0.000000 0.000000
vt 0.000000 0.000000
vt 0.000000 0.000000
vt 0.000000 0.000000
vt 0.000000 0.000000
vt 0.000000 0.000000
vt 0.000000 0.000000
vt 0.000000 0.000000
vt 0.000000 0.000000
vt 0.000000 0.000000
vt 0.000000 0.000000
vt 0.000000 0.000000
vt 0.000000 0.000000
vt 0.000000 0.000000
vt 0.000000 0.000000
vt 0.000000 0.000000
vn 0.1300 0.0000 -0.9915
vn 0.2476 0.7282 -0.6390
vn 0.8392 0.0000 -0.5438
vn -0.8890 0.0000 -0.4578
vn -0.1560 0.7387 -0.6557
vn -0.5215 0.0000 -0.8532
vn 0.1316 0.6260 -0.7686
vn -0.0861 0.0000 -0.9963
vn 0.4628 0.5973 -0.6550
vn 0.3881 0.0000 -0.9216
vn 0.5713 0.6298 -0.5262
vn 0.5531 0.0000 -0.8331
vn 0.5148 0.6503 -0.5586
vn 0.4465 0.0000 -0.8947
vn -0.1560 -0.7387 -0.6557
vn -0.6176 -0.6996 -0.3593
vn 0.1316 -0.6260 -0.7686
vn 0.4628 -0.5973 -0.6550
vn 0.5713 -0.6298 -0.5262
vn 0.5148 -0.6503 -0.5586
vn 0.2476 -0.7282 -0.6390
vn -0.1300 0.0000 0.9915
vn 0.8439 0.0000 0.5365
vn 0.0117 0.6495 0.7602
vn -0.4578 0.0000 0.8890
vn 0.5157 0.6889 0.5094
vn -0.3632 0.5813 0.7280
vn 0.5215 0.0000 0.8532
vn 0.3853 0.6785 0.6254
vn 0.0861 0.0000 0.9963
vn -0.0054 0.7335 0.6797
vn -0.3881 0.0000 0.9216
vn -0.1596 0.7338 0.6603
vn -0.5531 0.0000 0.8331
vn -0.1697 0.6804 0.7129
vn -0.4465 0.0000 0.8947
vn 0.5157 -0.6889 0.5094
vn -0.3632 -0.5813 0.7280
vn 0.3853 -0.6785 0.6254
vn -0.0054 -0.7335 0.6797
vn -0.1596 -0.7338 0.6603
vn -0.1697 -0.6804 0.7129
vn 0.0117 -0.6495 0.7602
vn -0.6176 0.6996 -0.3593
vn 0.0000 0.6302 -0.7764
vn 0.5490 -0.6302 -0.5490
vn 0.0000 -0.6302 -0.7764
vn 0.5490 0.6302 -0.5490
vn 0.7764 -0.6302 0.0000
vn 0.7764 0.6302 0.0000
vn 0.5490 -0.6302 0.5490
vn 0.0000 0.6302 0.7764
vn 0.0000 -0.6302 0.7764
vn -0.5490 0.6302 0.5490
vn -0.5490 -0.6302 0.5490
vn -0.7764 -0.6302 0.0000
vn -0.7764 0.6302 0.0000
vn -0.5490 -0.6302 -0.5490
vn -0.5490 0.6302 -0.5490
vn 0.5490 0.6302 0.5490
vn 0.1937 -0.9809 0.0169
vn 0.1621 0.9867 0.0142
vn 0.1937 0.9809 0.0169
vn 0.2949 0.9552 0.0257
vn 0.4269 -0.9035 0.0372
vn 0.3475 0.9372 0.0303
vn 0.3475 -0.9372 0.0303
vn 0.4269 0.9035 0.0373
vn 0.2949 -0.9552 0.0257
vn 0.3586 -0.9330 0.0313
vn 0.2285 -0.9733 0.0199
vn 0.2285 0.9733 0.0199
vn 0.1621 -0.9867 0.0141
vn 0.3586 0.9330 0.0313
vn 0.0000 1.0000 0.0000
vn 0.0000 -1.0000 -0.0000
vn 0.1621 0.9867 0.0141
vn 0.4269 -0.9035 0.0373
vn 0.4269 0.9035 0.0372
usemtl Material.001
s 1
f 57/1/1 16/2/2 2/3/3
f 4/4/4 21/5/5 27/6/6
f 27/6/6 20/7/7 33/8/8
f 33/8/8 19/9/9 39/10/10
f 39/10/10 18/11/11 45/12/12
f 45/12/12 17/13/13 51/14/14
f 51/14/14 16/2/2 57/1/1
f 9/15/4 10/16/15 1/17/16
f 8/18/4 22/19/6 9/15/4
f 7/20/4 23/21/6 8/18/4
f 7/20/4 25/22/6 24/23/6
f 6/24/4 26/25/6 25/22/6
f 5/26/4 27/6/6 26/25/6
f 22/19/6 11/27/17 10/16/15
f 23/21/6 28/28/8 22/19/6
f 24/23/6 29/29/8 23/21/6
f 25/22/6 30/30/8 24/23/6
f 25/22/6 32/31/8 31/32/8
f 26/25/6 33/8/8 32/31/8
f 28/28/8 12/33/18 11/27/17
f 29/29/8 34/34/10 28/28/8
f 30/30/8 35/35/10 29/29/8
f 30/30/8 37/36/10 36/37/10
f 31/32/8 38/38/10 37/36/10
f 32/31/8 39/10/10 38/38/10
f 34/34/10 13/39/19 12/33/18
f 35/35/10 40/40/12 34/34/10
f 36/37/10 41/41/12 35/35/10
f 37/36/10 42/42/12 36/37/10
f 37/36/10 44/43/12 43/44/12
f 38/38/10 45/12/12 44/43/12
f 40/40/12 14/45/20 13/39/19
f 41/41/12 46/46/14 40/40/12
f 42/42/12 47/47/14 41/41/12
f 43/44/12 48/48/14 42/42/12
f 43/44/12 50/49/14 49/50/14
f 44/43/12 51/14/14 50/49/14
f 46/46/14 15/51/21 14/45/20
f 47/47/14 52/52/1 46/46/14
f 48/48/14 53/53/1 47/47/14
f 49/50/14 54/54/1 48/48/14
f 49/50/14 56/55/1 55/56/1
f 50/49/14 57/1/1 56/55/1
f 15/51/21 52/52/1 2/3/3
f 52/52/1 53/53/1 2/3/3
f 53/53/1 54/54/1 2/3/3
f 54/54/1 55/56/1 2/3/3
f 55/56/1 56/55/1 2/3/3
f 56/55/1 57/1/1 2/3/3
f 109/57/22 61/58/23 74/59/24
f 64/60/25 62/61/26 63/62/27
f 79/63/28 78/64/29 62/61/26
f 85/65/30 77/66/31 78/64/29
f 91/67/32 76/68/33 77/66/31
f 97/69/34 75/70/35 76/68/33
f 103/71/36 74/59/24 75/70/35
f 69/72/37 58/73/25 59/74/38
f 80/75/28 68/76/25 58/73/25
f 81/77/28 67/78/25 68/76/25
f 67/78/25 83/79/28 66/80/25
f 66/80/25 84/81/28 65/82/25
f 65/82/25 79/63/28 64/60/25
f 70/83/39 80/75/28 69/72/37
f 86/84/30 81/77/28 80/75/28
f 87/85/30 82/86/28 81/77/28
f 88/87/30 83/79/28 82/86/28
f 83/79/28 90/88/30 84/81/28
f 84/81/28 85/65/30 79/63/28
f 71/89/40 86/84/30 70/83/39
f 92/90/32 87/85/30 86/84/30
f 93/91/32 88/87/30 87/85/30
f 88/87/30 95/92/32 89/93/30
f 89/93/30 96/94/32 90/88/30
f 90/88/30 91/67/32 85/65/30
f 72/95/41 92/90/32 71/89/40
f 98/96/34 93/91/32 92/90/32
f 99/97/34 94/98/32 93/91/32
f 100/99/34 95/92/32 94/98/32
f 95/92/32 102/100/34 96/94/32
f 96/94/32 97/69/34 91/67/32
f 73/101/42 98/96/34 72/95/41
f 104/102/36 99/97/34 98/96/34
f 105/103/36 100/99/34 99/97/34
f 106/104/36 101/105/34 100/99/34
f 101/105/34 108/106/36 102/100/34
f 102/100/34 103/71/36 97/69/34
f 60/107/43 104/102/36 73/101/42
f 110/108/22 105/103/36 104/102/36
f 111/109/22 106/104/36 105/103/36
f 112/110/22 107/111/36 106/104/36
f 107/111/36 114/112/22 108/106/36
f 108/106/36 109/57/22 103/71/36
f 60/107/43 61/58/23 110/108/22
f 110/108/22 61/58/23 111/109/22
f 111/109/22 61/58/23 112/110/22
f 112/110/22 61/58/23 113/113/22
f 113/113/22 61/58/23 114/112/22
f 114/112/22 61/58/23 109/57/22
f 4/4/4 63/62/27 3/114/44
f 5/26/4 64/60/25 4/4/4
f 6/24/4 65/82/25 5/26/4
f 7/20/4 66/80/25 6/24/4
f 8/18/4 67/78/25 7/20/4
f 1/17/16 58/73/25 9/15/4
f 9/15/4 68/76/25 8/18/4
f 116/115/45 117/116/46 115/117/47
f 118/118/48 119/119/49 117/116/46
f 120/120/50 121/121/51 119/119/49
f 121/121/51 124/122/52 123/123/53
f 123/123/53 126/124/54 125/125/55
f 126/124/54 127/126/56 125/125/55
f 128/127/57 129/128/58 127/126/56
f 130/129/59 115/117/47 129/128/58
f 4/4/4 3/114/44 21/5/5
f 27/6/6 21/5/5 20/7/7
f 33/8/8 20/7/7 19/9/9
f 39/10/10 19/9/9 18/11/11
f 45/12/12 18/11/11 17/13/13
f 51/14/14 17/13/13 16/2/2
f 9/15/4 22/19/6 10/16/15
f 8/18/4 23/21/6 22/19/6
f 7/20/4 24/23/6 23/21/6
f 7/20/4 6/24/4 25/22/6
f 6/24/4 5/26/4 26/25/6
f 5/26/4 4/4/4 27/6/6
f 22/19/6 28/28/8 11/27/17
f 23/21/6 29/29/8 28/28/8
f 24/23/6 30/30/8 29/29/8
f 25/22/6 31/32/8 30/30/8
f 25/22/6 26/25/6 32/31/8
f 26/25/6 27/6/6 33/8/8
f 28/28/8 34/34/10 12/33/18
f 29/29/8 35/35/10 34/34/10
f 30/30/8 36/37/10 35/35/10
f 30/30/8 31/32/8 37/36/10
f 31/32/8 32/31/8 38/38/10
f 32/31/8 33/8/8 39/10/10
f 34/34/10 40/40/12 13/39/19
f 35/35/10 41/41/12 40/40/12
f 36/37/10 42/42/12 41/41/12
f 37/36/10 43/44/12 42/42/12
f 37/36/10 38/38/10 44/43/12
f 38/38/10 39/10/10 45/12/12
f 40/40/12 46/46/14 14/45/20
f 41/41/12 47/47/14 46/46/14
f 42/42/12 48/48/14 47/47/14
f 43/44/12 49/50/14 48/48/14
f 43/44/12 44/43/12 50/49/14
f 44/43/12 45/12/12 51/14/14
f 46/46/14 52/52/1 15/51/21
f 47/47/14 53/53/1 52/52/1
f 48/48/14 54/54/1 53/53/1
f 49/50/14 55/56/1 54/54/1
f 49/50/14 50/49/14 56/55/1
f 50/49/14 51/14/14 57/1/1
f 64/60/25 79/63/28 62/61/26
f 79/63/28 85/65/30 78/64/29
f 85/65/30 91/67/32 77/66/31
f 91/67/32 97/69/34 76/68/33
f 97/69/34 103/71/36 75/70/35
f 103/71/36 109/57/22 74/59/24
f 69/72/37 80/75/28 58/73/25
f 80/75/28 81/77/28 68/76/25
f 81/77/28 82/86/28 67/78/25
f 67/78/25 82/86/28 83/79/28
f 66/80/25 83/79/28 84/81/28
f 65/82/25 84/81/28 79/63/28
f 70/83/39 86/84/30 80/75/28
f 86/84/30 87/85/30 81/77/28
f 87/85/30 88/87/30 82/86/28
f 88/87/30 89/93/30 83/79/28
f 83/79/28 89/93/30 90/88/30
f 84/81/28 90/88/30 85/65/30
f 71/89/40 92/90/32 86/84/30
f 92/90/32 93/91/32 87/85/30
f 93/91/32 94/98/32 88/87/30
f 88/87/30 94/98/32 95/92/32
f 89/93/30 95/92/32 96/94/32
f 90/88/30 96/94/32 91/67/32
f 72/95/41 98/96/34 92/90/32
f 98/96/34 99/97/34 93/91/32
f 99/97/34 100/99/34 94/98/32
f 100/99/34 101/105/34 95/92/32
f 95/92/32 101/105/34 102/100/34
f 96/94/32 102/100/34 97/69/34
f 73/101/42 104/102/36 98/96/34
f 104/102/36 105/103/36 99/97/34
f 105/103/36 106/104/36 100/99/34
f 106/104/36 107/111/36 101/105/34
f 101/105/34 107/111/36 108/106/36
f 102/100/34 108/106/36 103/71/36
f 60/107/43 110/108/22 104/102/36
f 110/108/22 111/109/22 105/103/36
f 111/109/22 112/110/22 106/104/36
f 112/110/22 113/113/22 107/111/36
f 107/111/36 113/113/22 114/112/22
f 108/106/36 114/112/22 109/57/22
f 4/4/4 64/60/25 63/62/27
f 5/26/4 65/82/25 64/60/25
f 6/24/4 66/80/25 65/82/25
f 7/20/4 67/78/25 66/80/25
f 8/18/4 68/76/25 67/78/25
f 1/17/16 59/74/38 58/73/25
f 9/15/4 58/73/25 68/76/25
f 116/115/45 118/118/48 117/116/46
f 118/118/48 120/120/50 119/119/49
f 120/120/50 122/130/60 121/121/51
f 121/121/51 122/130/60 124/122/52
f 123/123/53 124/122/52 126/124/54
f 126/124/54 128/127/57 127/126/56
f 128/127/57 130/129/59 129/128/58
f 130/129/59 116/115/45 115/117/47
usemtl Material.001_NONE
s off
f 1/131/61 69/132/61 59/133/61
f 16/134/62 61/135/62 2/136/62
f 3/137/63 62/138/63 21/139/63
f 18/140/64 77/141/64 76/142/64
f 10/143/65 70/144/65 69/132/65
f 19/145/66 78/146/66 77/141/66
f 12/147/67 70/144/67 11/148/67
f 21/139/68 78/146/68 20/149/68
f 13/150/69 71/151/69 12/147/69
f 14/152/70 72/153/70 13/150/70
f 15/154/71 73/155/71 14/152/71
f 16/134/72 75/156/72 74/157/72
f 15/154/73 61/135/73 60/158/73
f 17/159/74 76/142/74 75/156/74
f 124/160/75 122/161/75 120/162/75
f 121/163/76 125/164/76 129/165/76
f 1/131/61 10/143/61 69/132/61
f 16/134/77 74/157/77 61/135/77
f 3/137/63 63/166/63 62/138/63
f 18/140/64 19/145/64 77/141/64
f 10/143/78 11/148/78 70/144/78
f 19/145/66 20/149/66 78/146/66
f 12/147/67 71/151/67 70/144/67
f 21/139/79 62/138/79 78/146/79
f 13/150/69 72/153/69 71/151/69
f 14/152/70 73/155/70 72/153/70
f 15/154/71 60/158/71 73/155/71
f 16/134/72 17/159/72 75/156/72
f 15/154/73 2/136/73 61/135/73
f 17/159/74 18/140/74 76/142/74
f 120/162/75 118/167/75 116/168/75
f 116/168/75 130/169/75 120/162/75
f 130/169/75 128/170/75 120/162/75
f 128/170/75 126/171/75 120/162/75
f 126/171/75 124/160/75 120/162/75
f 129/165/76 115/172/76 117/173/76
f 117/173/76 119/174/76 121/163/76
f 121/163/76 123/175/76 125/164/76
f 125/164/76 127/176/76 129/165/76
f 129/165/76 117/173/76 121/163/76
