# Blender v2.79 (sub 0) OBJ File: 'whole_level.blend'
# www.blender.org
mtllib loop_ramp2.mtl
o Cube.001_Cube.002
v 0.022080 1.595115 -18.014351
v 3.046749 1.618681 -18.312881
v 0.049813 0.511793 -17.818880
v 0.077547 -0.571529 -17.623409
v 0.105280 -1.654851 -17.427940
v 1.367113 -1.902045 -6.361709
v 1.100556 -1.242219 -8.362048
v 0.833999 -0.582392 -10.362388
v 0.567441 0.077434 -12.362727
v 0.296843 0.802595 -14.874189
v 2.542637 1.614754 -18.263126
v 2.038526 1.610826 -18.213371
v 1.534414 1.606899 -18.163616
v 1.030303 1.602970 -18.113861
v 0.526191 1.599043 -18.064106
v 4.381710 -1.715613 -6.701926
v 4.115152 -1.055787 -8.702266
v 3.848595 -0.395960 -10.702605
v 3.582038 0.263866 -12.702944
v 3.311440 0.989027 -15.214407
v 3.129949 -1.631284 -17.726471
v 3.102215 -0.547962 -17.921942
v 3.074482 0.535360 -18.117413
v 0.553925 0.515721 -17.868635
v 0.581658 -0.567601 -17.673164
v 0.609391 -1.650923 -17.477694
v 1.058036 0.519649 -17.918390
v 1.085769 -0.563674 -17.722919
v 1.113503 -1.646995 -17.527451
v 1.562147 0.523576 -17.968145
v 1.589881 -0.559746 -17.772675
v 1.617614 -1.643068 -17.577206
v 2.066259 0.527504 -18.017900
v 2.093992 -0.555818 -17.822432
v 2.121726 -1.639140 -17.626961
v 2.570370 0.531431 -18.067657
v 2.598104 -0.551890 -17.872187
v 2.625837 -1.635212 -17.676716
v 3.336770 -0.055430 -15.562304
v 3.362100 -1.099887 -15.910202
v 3.387429 -2.144344 -16.258099
v 3.607368 -0.780591 -13.050841
v 3.632697 -1.825048 -13.398739
v 3.873925 -1.440417 -11.050502
v 3.899255 -2.484874 -11.398399
v 4.140482 -2.100244 -9.050163
v 4.407040 -2.760070 -7.049823
v 0.799276 0.833667 -14.930893
v 1.301709 0.864739 -14.987596
v 1.804142 0.895811 -15.044298
v 2.306574 0.926883 -15.101002
v 2.809007 0.957955 -15.157704
v 1.069874 0.108506 -12.419430
v 1.572307 0.139578 -12.476132
v 2.074739 0.170650 -12.532835
v 2.577172 0.201722 -12.589539
v 3.079605 0.232794 -12.646241
v 1.336431 -0.551320 -10.419090
v 1.838864 -0.520248 -10.475794
v 2.341297 -0.489176 -10.532496
v 2.843729 -0.458104 -10.589199
v 3.346162 -0.427032 -10.645902
v 1.602989 -1.211147 -8.418751
v 2.105422 -1.180074 -8.475454
v 2.607854 -1.149003 -8.532157
v 3.110287 -1.117931 -8.588860
v 3.612720 -1.086859 -8.645563
v 1.869546 -1.870973 -6.418412
v 2.371979 -1.839901 -6.475115
v 2.874412 -1.808829 -6.531817
v 3.376844 -1.777757 -6.588521
v 3.879277 -1.746685 -6.645223
v 0.372833 -2.330775 -15.917881
v 0.347503 -1.286319 -15.569983
v 0.322173 -0.241862 -15.222086
v 0.618101 -2.011479 -13.058521
v 0.592771 -0.967022 -12.710624
v 0.884658 -2.671306 -11.058182
v 0.859328 -1.626849 -10.710284
v 1.125886 -2.286675 -8.709946
v 0.022080 1.595115 -18.014351
v 3.046749 1.618681 -18.312881
v 3.074482 0.535360 -18.117413
v 3.102215 -0.547962 -17.921942
v 3.129949 -1.631284 -17.726471
v 0.526191 1.599043 -18.064106
v 1.030303 1.602970 -18.113861
v 1.534414 1.606899 -18.163616
v 2.038526 1.610826 -18.213371
v 2.542637 1.614754 -18.263126
v 0.105280 -1.654851 -17.427940
v 0.077547 -0.571529 -17.623409
v 0.049813 0.511793 -17.818880
v 0.022080 1.595115 -18.014351
v 0.049813 0.511793 -17.818880
v 0.077547 -0.571529 -17.623409
v 0.105280 -1.654851 -17.427940
v 0.296843 0.802595 -14.874189
v 0.567441 0.077434 -12.362727
v 0.833999 -0.582392 -10.362388
v 1.100556 -1.242219 -8.362048
v 1.367113 -1.902045 -6.361709
v 0.022080 1.595115 -18.014351
v 3.046749 1.618681 -18.312881
v 3.074482 0.535360 -18.117413
v 3.102215 -0.547962 -17.921942
v 3.129949 -1.631284 -17.726471
v 3.311440 0.989027 -15.214407
v 3.582038 0.263866 -12.702944
v 3.848595 -0.395960 -10.702605
v 4.115152 -1.055787 -8.702266
v 4.381710 -1.715613 -6.701926
v 3.046749 1.618681 -18.312881
vn -0.0953 -0.1791 -0.9792
vn -0.0952 -0.1791 -0.9792
vn 0.0000 0.0000 1.0000
vn 0.9949 0.0073 -0.1004
vn 0.9918 0.0024 -0.1275
vn 0.9943 0.0546 -0.0914
vn 0.9918 0.0613 -0.1119
vn 0.0157 0.9716 0.2360
vn 0.0150 0.9734 0.2286
vn 0.0142 0.9752 0.2211
vn 0.0135 0.9768 0.2135
vn 0.0127 0.9785 0.2059
vn -0.0277 0.9596 0.2801
vn -0.0230 0.9485 0.3159
vn -0.9964 -0.0102 0.0846
vn -0.9943 -0.0546 0.0914
vn -0.9918 -0.0613 0.1119
vn -0.9916 -0.0020 0.1297
vn -0.9947 -0.0070 0.1023
vn 0.0119 0.9801 0.1982
vn 0.9960 0.0492 -0.0751
vn 0.9919 0.0611 -0.1114
vn 0.9864 0.0730 -0.1474
vn -0.0320 0.9684 0.2472
vn -0.0329 0.9702 0.2399
vn -0.0339 0.9720 0.2325
vn -0.0348 0.9737 0.2250
vn -0.0358 0.9754 0.2174
vn -0.9946 -0.0537 0.0887
vn -0.9872 -0.0715 0.1429
vn -0.9922 -0.0605 0.1094
vn -0.0367 0.9771 0.2098
usemtl None
s off
f 94//1 24//1 95//1
f 95//2 25//2 96//2
f 96//1 26//1 97//1
f 15//1 27//1 24//1
f 24//2 28//2 25//2
f 25//1 29//1 26//1
f 14//1 30//1 27//1
f 27//2 31//2 28//2
f 28//1 32//1 29//1
f 13//1 33//1 30//1
f 30//1 34//1 31//1
f 31//2 35//2 32//2
f 12//1 36//1 33//1
f 33//1 37//1 34//1
f 34//2 38//2 35//2
f 104//3 23//3 105//3
f 105//3 22//3 106//3
f 106//3 21//3 107//3
f 82//4 39//4 83//4
f 39//4 84//4 83//4
f 40//5 85//5 84//5
f 20//6 42//6 39//6
f 39//6 43//6 40//6
f 18//7 42//7 19//7
f 44//7 43//7 42//7
f 17//7 44//7 18//7
f 16//7 46//7 17//7
f 113//3 20//3 82//3
f 108//3 19//3 20//3
f 109//3 18//3 19//3
f 110//3 17//3 18//3
f 111//3 16//3 17//3
f 103//8 48//8 86//8
f 86//9 49//9 87//9
f 87//10 50//10 88//10
f 88//11 51//11 89//11
f 89//12 52//12 90//12
f 98//13 53//13 48//13
f 48//13 54//13 49//13
f 49//13 55//13 50//13
f 50//13 56//13 51//13
f 51//13 57//13 52//13
f 100//14 53//14 99//14
f 58//14 54//14 53//14
f 59//14 55//14 54//14
f 60//14 56//14 55//14
f 61//14 57//14 56//14
f 101//14 58//14 100//14
f 63//14 59//14 58//14
f 64//14 60//14 59//14
f 65//14 61//14 60//14
f 66//14 62//14 61//14
f 102//14 63//14 101//14
f 68//14 64//14 63//14
f 69//14 65//14 64//14
f 70//14 66//14 65//14
f 71//14 67//14 66//14
f 93//15 10//15 81//15
f 77//16 10//16 75//16
f 79//17 9//17 77//17
f 80//17 8//17 79//17
f 91//18 74//18 92//18
f 92//19 75//19 93//19
f 76//16 75//16 74//16
f 76//17 79//17 77//17
f 4//3 93//3 3//3
f 5//3 92//3 4//3
f 3//3 81//3 1//3
f 12//3 90//3 11//3
f 13//3 89//3 12//3
f 14//3 88//3 13//3
f 15//3 87//3 14//3
f 94//3 86//3 15//3
f 104//3 82//3 2//3
f 22//3 85//3 21//3
f 23//3 84//3 22//3
f 2//3 83//3 23//3
f 1//3 103//3 94//3
f 7//3 102//3 101//3
f 8//3 101//3 100//3
f 9//3 100//3 99//3
f 10//3 99//3 98//3
f 81//3 98//3 103//3
f 4//3 97//3 5//3
f 3//3 96//3 4//3
f 1//3 95//3 3//3
f 11//3 113//3 104//3
f 72//14 111//14 67//14
f 67//14 110//14 62//14
f 62//14 109//14 57//14
f 52//13 109//13 108//13
f 90//20 108//20 113//20
f 37//2 107//2 38//2
f 36//1 106//1 37//1
f 11//1 105//1 36//1
f 94//2 15//2 24//2
f 95//1 24//1 25//1
f 96//2 25//2 26//2
f 15//2 14//2 27//2
f 24//1 27//1 28//1
f 25//2 28//2 29//2
f 14//2 13//2 30//2
f 27//1 30//1 31//1
f 28//1 31//1 32//1
f 13//2 12//2 33//2
f 30//2 33//2 34//2
f 31//1 34//1 35//1
f 12//2 11//2 36//2
f 33//2 36//2 37//2
f 34//1 37//1 38//1
f 104//3 2//3 23//3
f 105//3 23//3 22//3
f 106//3 22//3 21//3
f 82//21 20//21 39//21
f 39//22 40//22 84//22
f 40//23 41//23 85//23
f 20//6 19//6 42//6
f 39//6 42//6 43//6
f 18//7 44//7 42//7
f 44//7 45//7 43//7
f 17//7 46//7 44//7
f 16//7 47//7 46//7
f 113//3 108//3 20//3
f 108//3 109//3 19//3
f 109//3 110//3 18//3
f 110//3 111//3 17//3
f 111//3 112//3 16//3
f 103//24 98//24 48//24
f 86//25 48//25 49//25
f 87//26 49//26 50//26
f 88//27 50//27 51//27
f 89//28 51//28 52//28
f 98//13 99//13 53//13
f 48//13 53//13 54//13
f 49//13 54//13 55//13
f 50//13 55//13 56//13
f 51//13 56//13 57//13
f 100//14 58//14 53//14
f 58//14 59//14 54//14
f 59//14 60//14 55//14
f 60//14 61//14 56//14
f 61//14 62//14 57//14
f 101//14 63//14 58//14
f 63//14 64//14 59//14
f 64//14 65//14 60//14
f 65//14 66//14 61//14
f 66//14 67//14 62//14
f 102//14 68//14 63//14
f 68//14 69//14 64//14
f 69//14 70//14 65//14
f 70//14 71//14 66//14
f 71//14 72//14 67//14
f 93//29 75//29 10//29
f 77//16 9//16 10//16
f 79//17 8//17 9//17
f 80//17 7//17 8//17
f 91//30 73//30 74//30
f 92//31 74//31 75//31
f 76//16 77//16 75//16
f 76//17 78//17 79//17
f 4//3 92//3 93//3
f 5//3 91//3 92//3
f 3//3 93//3 81//3
f 12//3 89//3 90//3
f 13//3 88//3 89//3
f 14//3 87//3 88//3
f 15//3 86//3 87//3
f 94//3 103//3 86//3
f 104//3 113//3 82//3
f 22//3 84//3 85//3
f 23//3 83//3 84//3
f 2//3 82//3 83//3
f 1//3 81//3 103//3
f 7//3 6//3 102//3
f 8//3 7//3 101//3
f 9//3 8//3 100//3
f 10//3 9//3 99//3
f 81//3 10//3 98//3
f 4//3 96//3 97//3
f 3//3 95//3 96//3
f 1//3 94//3 95//3
f 11//3 90//3 113//3
f 72//14 112//14 111//14
f 67//14 111//14 110//14
f 62//14 110//14 109//14
f 52//13 57//13 109//13
f 90//32 52//32 108//32
f 37//1 106//1 107//1
f 36//2 105//2 106//2
f 11//1 104//1 105//1
