# Blender v2.79 (sub 0) OBJ File: 'test_ground.blend'
# www.blender.org
mtllib cylinder.mtl
o Cylinder
v 0.000000 0.000000 -0.500000
v 0.000000 1.000000 -0.500000
v 0.097545 0.000000 -0.490393
v 0.097545 1.000000 -0.490393
v 0.191342 0.000000 -0.461940
v 0.191342 1.000000 -0.461940
v 0.277785 0.000000 -0.415735
v 0.277785 1.000000 -0.415735
v 0.353553 0.000000 -0.353553
v 0.353553 1.000000 -0.353553
v 0.415735 0.000000 -0.277785
v 0.415735 1.000000 -0.277785
v 0.461940 0.000000 -0.191342
v 0.461940 1.000000 -0.191342
v 0.490393 0.000000 -0.097545
v 0.490393 1.000000 -0.097545
v 0.500000 0.000000 -0.000000
v 0.500000 1.000000 -0.000000
v 0.490393 0.000000 0.097545
v 0.490393 1.000000 0.097545
v 0.461940 0.000000 0.191342
v 0.461940 1.000000 0.191342
v 0.415735 0.000000 0.277785
v 0.415735 1.000000 0.277785
v 0.353553 0.000000 0.353553
v 0.353553 1.000000 0.353553
v 0.277785 0.000000 0.415735
v 0.277785 1.000000 0.415735
v 0.191342 0.000000 0.461940
v 0.191342 1.000000 0.461940
v 0.097545 0.000000 0.490393
v 0.097545 1.000000 0.490393
v -0.000000 0.000000 0.500000
v -0.000000 1.000000 0.500000
v -0.097545 0.000000 0.490393
v -0.097545 1.000000 0.490393
v -0.191342 0.000000 0.461940
v -0.191342 1.000000 0.461940
v -0.277785 0.000000 0.415735
v -0.277785 1.000000 0.415735
v -0.353554 0.000000 0.353553
v -0.353554 1.000000 0.353553
v -0.415735 0.000000 0.277785
v -0.415735 1.000000 0.277785
v -0.461940 0.000000 0.191341
v -0.461940 1.000000 0.191341
v -0.490393 0.000000 0.097545
v -0.490393 1.000000 0.097545
v -0.500000 0.000000 -0.000000
v -0.500000 1.000000 -0.000000
v -0.490393 0.000000 -0.097546
v -0.490393 1.000000 -0.097546
v -0.461940 0.000000 -0.191342
v -0.461940 1.000000 -0.191342
v -0.415734 0.000000 -0.277786
v -0.415734 1.000000 -0.277786
v -0.353553 0.000000 -0.353554
v -0.353553 1.000000 -0.353554
v -0.277785 0.000000 -0.415735
v -0.277785 1.000000 -0.415735
v -0.191341 0.000000 -0.461940
v -0.191341 1.000000 -0.461940
v -0.097544 0.000000 -0.490393
v -0.097544 1.000000 -0.490393
vt 0.019312 0.645817
vt 0.354184 0.019311
vt 0.980690 0.354187
vt 0.980689 0.354184
vt 0.645815 0.980687
vt 0.019310 0.645811
vt 0.645815 0.980686
vt 0.549235 0.999896
vt 0.450764 0.999896
vt 0.354185 0.980686
vt 0.263209 0.943003
vt 0.181333 0.888295
vt 0.111703 0.818665
vt 0.056995 0.736791
vt 0.000101 0.549238
vt 0.000100 0.450766
vt 0.019311 0.354186
vt 0.056994 0.263209
vt 0.111702 0.181333
vt 0.181332 0.111703
vt 0.263208 0.056994
vt 0.450764 0.000100
vt 0.549236 0.000100
vt 0.645815 0.019311
vt 0.736792 0.056995
vt 0.818669 0.111703
vt 0.888299 0.181333
vt 0.943007 0.263210
vt 0.999900 0.450766
vt 0.999900 0.549237
vt 0.980688 0.645816
vt 0.943005 0.736791
vt 0.888297 0.818666
vt 0.818667 0.888296
vt 0.736791 0.943003
vt 0.354187 0.019310
vt 0.450766 0.000100
vt 0.549237 0.000100
vt 0.645817 0.019311
vt 0.736792 0.056995
vt 0.818668 0.111703
vt 0.888298 0.181333
vt 0.943006 0.263208
vt 0.999900 0.450763
vt 0.999900 0.549233
vt 0.980689 0.645813
vt 0.943006 0.736789
vt 0.888298 0.818665
vt 0.818668 0.888295
vt 0.736791 0.943003
vt 0.549235 0.999898
vt 0.450763 0.999897
vt 0.354183 0.980686
vt 0.263207 0.943002
vt 0.181331 0.888294
vt 0.111701 0.818664
vt 0.056993 0.736787
vt 0.000100 0.549232
vt 0.000100 0.450761
vt 0.019312 0.354182
vt 0.056996 0.263206
vt 0.111704 0.181331
vt 0.181334 0.111701
vt 0.263211 0.056993
vt 1.697126 0.993243
vt 1.621727 0.001617
vt 1.696536 0.001617
vt 1.622316 0.993243
vt 1.546917 0.001617
vt 1.547506 0.993243
vt 1.472107 0.001617
vt 1.472697 0.993243
vt 1.397298 0.001617
vt 1.397887 0.993243
vt 1.322488 0.001617
vt 1.323077 0.993243
vt 1.247679 0.001617
vt 1.248268 0.993243
vt 1.172869 0.001617
vt 1.173458 0.993243
vt 1.098059 0.001617
vt 1.098649 0.993243
vt 1.023250 0.001617
vt 1.023839 0.993243
vt 0.948440 0.001617
vt 0.949029 0.993243
vt 0.873630 0.001617
vt 0.874220 0.993243
vt 0.798821 0.001617
vt 0.799410 0.993243
vt 0.724011 0.001617
vt 0.724600 0.993243
vt 0.649201 0.001617
vt 0.649791 0.993243
vt 0.574392 0.001617
vt 0.574981 0.993243
vt 0.499582 0.001617
vt 0.500171 0.993243
vt 0.424772 0.001617
vt 0.425362 0.993243
vt 0.349963 0.001617
vt 0.350552 0.993243
vt 0.275153 0.001617
vt 0.275742 0.993243
vt 0.200344 0.001617
vt 0.200933 0.993243
vt 0.125534 0.001617
vt 0.126123 0.993243
vt 0.050724 0.001617
vt 0.051314 0.993243
vt -0.024085 0.001617
vt -0.023496 0.993243
vt -0.098895 0.001617
vt -0.098306 0.993243
vt -0.173705 0.001617
vt -0.173115 0.993243
vt -0.248514 0.001617
vt -0.247925 0.993243
vt -0.323324 0.001617
vt -0.322735 0.993243
vt -0.398134 0.001617
vt -0.397544 0.993243
vt -0.472943 0.001617
vt -0.472354 0.993243
vt -0.547753 0.001617
vt -0.547164 0.993243
vt -0.622563 0.001617
vt -0.621973 0.993243
vt -0.697372 0.001617
vt -0.696782 0.993243
vn 0.0000 1.0000 0.0000
vn 0.0000 -1.0000 0.0000
vn 0.0000 0.6857 -0.7279
vn 0.1420 -0.6857 -0.7139
vn 0.0000 -0.6857 -0.7279
vn 0.1420 0.6857 -0.7139
vn 0.2785 -0.6857 -0.6725
vn 0.2785 0.6857 -0.6725
vn 0.4044 -0.6857 -0.6052
vn 0.4044 0.6857 -0.6052
vn 0.5147 -0.6857 -0.5147
vn 0.5147 0.6857 -0.5147
vn 0.6052 -0.6857 -0.4044
vn 0.6052 0.6857 -0.4044
vn 0.6725 -0.6857 -0.2785
vn 0.6725 0.6857 -0.2785
vn 0.7139 -0.6857 -0.1420
vn 0.7139 0.6857 -0.1420
vn 0.7279 -0.6857 0.0000
vn 0.7279 0.6857 0.0000
vn 0.7139 -0.6857 0.1420
vn 0.7139 0.6857 0.1420
vn 0.6725 -0.6857 0.2785
vn 0.6725 0.6857 0.2785
vn 0.6052 -0.6857 0.4044
vn 0.6052 0.6857 0.4044
vn 0.5147 -0.6857 0.5147
vn 0.5147 0.6857 0.5147
vn 0.4044 -0.6857 0.6052
vn 0.4044 0.6857 0.6052
vn 0.2785 -0.6857 0.6725
vn 0.2785 0.6857 0.6725
vn 0.1420 -0.6857 0.7139
vn 0.1420 0.6857 0.7139
vn 0.0000 -0.6857 0.7279
vn 0.0000 0.6857 0.7279
vn -0.1420 -0.6857 0.7139
vn -0.1420 0.6857 0.7139
vn -0.2785 -0.6857 0.6725
vn -0.2785 0.6857 0.6725
vn -0.4044 -0.6857 0.6052
vn -0.4044 0.6857 0.6052
vn -0.5147 -0.6857 0.5147
vn -0.5147 0.6857 0.5147
vn -0.6052 -0.6857 0.4044
vn -0.6052 0.6857 0.4044
vn -0.6725 -0.6857 0.2785
vn -0.6725 0.6857 0.2785
vn -0.7139 -0.6857 0.1420
vn -0.7139 0.6857 0.1420
vn -0.7279 -0.6857 0.0000
vn -0.7279 0.6857 0.0000
vn -0.7139 -0.6857 -0.1420
vn -0.7139 0.6857 -0.1420
vn -0.6725 -0.6857 -0.2785
vn -0.6725 0.6857 -0.2785
vn -0.6052 -0.6857 -0.4044
vn -0.6052 0.6857 -0.4044
vn -0.5147 -0.6857 -0.5147
vn -0.5147 0.6857 -0.5147
vn -0.4044 -0.6857 -0.6052
vn -0.4044 0.6857 -0.6052
vn -0.2785 -0.6857 -0.6725
vn -0.2785 0.6857 -0.6725
vn -0.1420 -0.6857 -0.7139
vn -0.1420 0.6857 -0.7139
usemtl PlaneMaterial
s off
f 54/1/1 38/2/1 22/3/1
f 15/4/2 31/5/2 47/6/2
f 6/7/1 4/8/1 2/9/1
f 2/9/1 64/10/1 6/7/1
f 64/10/1 62/11/1 6/7/1
f 62/11/1 60/12/1 58/13/1
f 58/13/1 56/14/1 54/1/1
f 54/1/1 52/15/1 50/16/1
f 50/16/1 48/17/1 54/1/1
f 48/17/1 46/18/1 54/1/1
f 46/18/1 44/19/1 38/2/1
f 44/19/1 42/20/1 38/2/1
f 42/20/1 40/21/1 38/2/1
f 38/2/1 36/22/1 34/23/1
f 34/23/1 32/24/1 30/25/1
f 30/25/1 28/26/1 26/27/1
f 26/27/1 24/28/1 22/3/1
f 22/3/1 20/29/1 18/30/1
f 18/30/1 16/31/1 22/3/1
f 16/31/1 14/32/1 22/3/1
f 14/32/1 12/33/1 10/34/1
f 10/34/1 8/35/1 6/7/1
f 62/11/1 58/13/1 6/7/1
f 58/13/1 54/1/1 6/7/1
f 38/2/1 34/23/1 22/3/1
f 34/23/1 30/25/1 22/3/1
f 30/25/1 26/27/1 22/3/1
f 14/32/1 10/34/1 22/3/1
f 10/34/1 6/7/1 22/3/1
f 54/1/1 46/18/1 38/2/1
f 6/7/1 54/1/1 22/3/1
f 63/36/2 1/37/2 3/38/2
f 3/38/2 5/39/2 7/40/2
f 7/40/2 9/41/2 11/42/2
f 11/42/2 13/43/2 7/40/2
f 13/43/2 15/4/2 7/40/2
f 15/4/2 17/44/2 19/45/2
f 19/45/2 21/46/2 15/4/2
f 21/46/2 23/47/2 15/4/2
f 23/47/2 25/48/2 31/5/2
f 25/48/2 27/49/2 31/5/2
f 27/49/2 29/50/2 31/5/2
f 31/5/2 33/51/2 35/52/2
f 35/52/2 37/53/2 39/54/2
f 39/54/2 41/55/2 43/56/2
f 43/56/2 45/57/2 47/6/2
f 47/6/2 49/58/2 51/59/2
f 51/59/2 53/60/2 55/61/2
f 55/61/2 57/62/2 63/36/2
f 57/62/2 59/63/2 63/36/2
f 59/63/2 61/64/2 63/36/2
f 63/36/2 3/38/2 7/40/2
f 31/5/2 35/52/2 47/6/2
f 35/52/2 39/54/2 47/6/2
f 39/54/2 43/56/2 47/6/2
f 47/6/2 51/59/2 63/36/2
f 51/59/2 55/61/2 63/36/2
f 63/36/2 7/40/2 15/4/2
f 15/4/2 23/47/2 31/5/2
f 63/36/2 15/4/2 47/6/2
s 1
f 2/65/3 3/66/4 1/67/5
f 4/68/6 5/69/7 3/66/4
f 6/70/8 7/71/9 5/69/7
f 8/72/10 9/73/11 7/71/9
f 10/74/12 11/75/13 9/73/11
f 12/76/14 13/77/15 11/75/13
f 14/78/16 15/79/17 13/77/15
f 16/80/18 17/81/19 15/79/17
f 18/82/20 19/83/21 17/81/19
f 20/84/22 21/85/23 19/83/21
f 22/86/24 23/87/25 21/85/23
f 24/88/26 25/89/27 23/87/25
f 26/90/28 27/91/29 25/89/27
f 28/92/30 29/93/31 27/91/29
f 30/94/32 31/95/33 29/93/31
f 32/96/34 33/97/35 31/95/33
f 34/98/36 35/99/37 33/97/35
f 36/100/38 37/101/39 35/99/37
f 38/102/40 39/103/41 37/101/39
f 40/104/42 41/105/43 39/103/41
f 42/106/44 43/107/45 41/105/43
f 44/108/46 45/109/47 43/107/45
f 46/110/48 47/111/49 45/109/47
f 48/112/50 49/113/51 47/111/49
f 50/114/52 51/115/53 49/113/51
f 52/116/54 53/117/55 51/115/53
f 54/118/56 55/119/57 53/117/55
f 56/120/58 57/121/59 55/119/57
f 58/122/60 59/123/61 57/121/59
f 60/124/62 61/125/63 59/123/61
f 62/126/64 63/127/65 61/125/63
f 64/128/66 1/129/5 63/127/65
f 2/65/3 4/68/6 3/66/4
f 4/68/6 6/70/8 5/69/7
f 6/70/8 8/72/10 7/71/9
f 8/72/10 10/74/12 9/73/11
f 10/74/12 12/76/14 11/75/13
f 12/76/14 14/78/16 13/77/15
f 14/78/16 16/80/18 15/79/17
f 16/80/18 18/82/20 17/81/19
f 18/82/20 20/84/22 19/83/21
f 20/84/22 22/86/24 21/85/23
f 22/86/24 24/88/26 23/87/25
f 24/88/26 26/90/28 25/89/27
f 26/90/28 28/92/30 27/91/29
f 28/92/30 30/94/32 29/93/31
f 30/94/32 32/96/34 31/95/33
f 32/96/34 34/98/36 33/97/35
f 34/98/36 36/100/38 35/99/37
f 36/100/38 38/102/40 37/101/39
f 38/102/40 40/104/42 39/103/41
f 40/104/42 42/106/44 41/105/43
f 42/106/44 44/108/46 43/107/45
f 44/108/46 46/110/48 45/109/47
f 46/110/48 48/112/50 47/111/49
f 48/112/50 50/114/52 49/113/51
f 50/114/52 52/116/54 51/115/53
f 52/116/54 54/118/56 53/117/55
f 54/118/56 56/120/58 55/119/57
f 56/120/58 58/122/60 57/121/59
f 58/122/60 60/124/62 59/123/61
f 60/124/62 62/126/64 61/125/63
f 62/126/64 64/128/66 63/127/65
f 64/128/66 2/130/3 1/129/5
