# Blender v2.79 (sub 0) OBJ File: 'whole_level.blend'
# www.blender.org
mtllib ground.mtl
o Plane
v 14.525978 0.000000 -51.758022
v -55.058784 0.000000 -51.758022
v 14.525978 0.000000 51.758022
v -55.058784 0.000000 51.758022
v 14.525978 0.000000 41.406418
v 14.525978 0.000000 31.054815
v 14.525978 0.000000 20.703211
v 14.525978 0.000000 10.351605
v 14.525978 0.000000 0.000000
v 14.525978 0.000000 -10.351604
v 14.525978 0.000000 -20.703209
v 14.525978 0.000000 -31.054815
v 14.525978 0.000000 -41.406418
v 7.567503 0.000000 -51.758022
v 0.609026 0.000000 -51.758022
v -6.349449 0.000000 -51.758022
v -13.307926 0.000000 -51.758022
v -20.266403 0.000000 -51.758022
v -27.224880 0.000000 -51.758022
v -34.183357 0.000000 -51.758022
v -41.141830 0.000000 -51.758022
v -48.100311 0.000000 -51.758022
v -55.058784 0.000000 -41.406418
v -55.058784 0.000000 -31.054815
v -55.058784 0.000000 -20.703211
v -55.058784 0.000000 -10.351605
v -55.058784 0.000000 0.000000
v -55.058784 0.000000 10.351604
v -55.058784 0.000000 20.703209
v -55.058784 0.000000 31.054815
v -55.058784 0.000000 41.406418
v -48.100311 0.000000 51.758022
v -41.141830 0.000000 51.758022
v -34.183357 0.000000 51.758022
v -27.224880 0.000000 51.758022
v -20.266403 0.000000 51.758022
v -13.307926 0.000000 51.758022
v -6.349450 0.000000 51.758022
v 0.609026 0.000000 51.758022
v 7.567503 0.000000 51.758022
v 7.567503 0.000000 -41.406418
v 7.567503 0.000000 -31.054815
v 7.567503 0.000000 -20.703211
v 7.567503 0.000000 -10.351605
v 7.567503 0.000000 0.000000
v 7.567503 0.000000 10.351604
v 7.567503 0.000000 20.703209
v 7.567503 0.000000 31.054815
v 7.567503 0.000000 41.406418
v 0.609026 0.000000 -41.406418
v 0.609026 0.000000 -31.054815
v 0.609026 0.000000 -20.703211
v 0.609026 0.000000 -10.351605
v 0.609026 0.000000 0.000000
v 0.609026 0.000000 10.351604
v 0.609026 0.000000 20.703209
v 0.609026 0.000000 31.054815
v 0.609026 0.000000 41.406418
v -6.349449 0.000000 -41.406418
v -6.349449 0.000000 -31.054815
v -6.349449 0.000000 -20.703211
v -6.349449 0.000000 -10.351605
v -6.349449 0.000000 0.000000
v -6.349449 0.000000 10.351604
v -6.349449 0.000000 20.703209
v -6.349449 0.000000 31.054815
v -6.349449 0.000000 41.406418
v -13.307926 0.000000 -41.406418
v -13.307926 0.000000 -31.054815
v -13.307926 0.000000 -20.703211
v -13.307926 0.000000 -10.351605
v -13.307926 0.000000 0.000000
v -13.307926 0.000000 10.351604
v -13.307926 0.000000 20.703209
v -13.307926 0.000000 31.054815
v -13.307926 0.000000 41.406418
v -20.266403 0.000000 -41.406418
v -20.266403 0.000000 -31.054815
v -20.266403 0.000000 -20.703211
v -20.266403 0.000000 -10.351605
v -20.266403 0.000000 0.000000
v -20.266403 0.000000 10.351604
v -20.266403 0.000000 20.703209
v -20.266403 0.000000 31.054815
v -20.266403 0.000000 41.406418
v -27.224880 0.000000 -41.406418
v -27.224880 0.000000 -31.054815
v -27.224880 0.000000 -20.703211
v -27.224880 0.000000 -10.351605
v -27.224880 0.000000 0.000000
v -27.224880 0.000000 10.351604
v -27.224880 0.000000 20.703209
v -27.224880 0.000000 31.054815
v -27.224880 0.000000 41.406418
v -34.183357 0.000000 -41.406418
v -34.183357 0.000000 -31.054815
v -34.183357 0.000000 -20.703211
v -34.183357 0.000000 -10.351605
v -34.183357 0.000000 0.000000
v -34.183357 0.000000 10.351604
v -34.183357 0.000000 20.703209
v -34.183357 0.000000 31.054815
v -34.183357 0.000000 41.406418
v -41.141830 0.000000 -41.406418
v -41.141830 0.000000 -31.054815
v -41.141830 0.000000 -20.703211
v -41.141830 0.000000 -10.351605
v -41.141830 0.000000 0.000000
v -41.141830 0.000000 10.351604
v -41.141830 0.000000 20.703209
v -41.141830 0.000000 31.054815
v -41.141830 0.000000 41.406418
v -48.100311 0.000000 -41.406418
v -48.100311 0.000000 -31.054815
v -48.100311 0.000000 -20.703211
v -48.100311 0.000000 -10.351605
v -48.100311 0.000000 0.000000
v -48.100311 0.000000 10.351604
v -48.100311 0.000000 20.703209
v -48.100311 0.000000 31.054815
v -48.100311 0.000000 41.406418
vn 0.0000 1.0000 0.0000
usemtl None
s off
f 32//1 121//1 31//1
f 3//1 5//1 49//1
f 40//1 49//1 58//1
f 39//1 58//1 67//1
f 38//1 67//1 76//1
f 37//1 76//1 85//1
f 36//1 85//1 94//1
f 35//1 94//1 103//1
f 34//1 103//1 112//1
f 33//1 112//1 121//1
f 13//1 1//1 14//1
f 12//1 13//1 41//1
f 11//1 12//1 42//1
f 11//1 43//1 44//1
f 9//1 10//1 44//1
f 8//1 9//1 45//1
f 8//1 46//1 47//1
f 6//1 7//1 47//1
f 5//1 6//1 48//1
f 41//1 14//1 15//1
f 42//1 41//1 50//1
f 43//1 42//1 51//1
f 44//1 43//1 52//1
f 45//1 44//1 53//1
f 46//1 45//1 54//1
f 47//1 46//1 55//1
f 48//1 47//1 56//1
f 49//1 48//1 57//1
f 50//1 15//1 16//1
f 51//1 50//1 59//1
f 52//1 51//1 60//1
f 53//1 52//1 61//1
f 54//1 53//1 62//1
f 55//1 54//1 63//1
f 56//1 55//1 64//1
f 57//1 56//1 65//1
f 58//1 57//1 66//1
f 59//1 16//1 17//1
f 60//1 59//1 68//1
f 61//1 60//1 69//1
f 62//1 61//1 70//1
f 63//1 62//1 71//1
f 64//1 63//1 72//1
f 65//1 64//1 73//1
f 66//1 65//1 74//1
f 67//1 66//1 75//1
f 68//1 17//1 18//1
f 69//1 68//1 77//1
f 70//1 69//1 78//1
f 71//1 70//1 79//1
f 72//1 71//1 80//1
f 73//1 72//1 81//1
f 74//1 73//1 82//1
f 75//1 74//1 83//1
f 76//1 75//1 84//1
f 77//1 18//1 19//1
f 78//1 77//1 86//1
f 79//1 78//1 87//1
f 80//1 79//1 88//1
f 81//1 80//1 89//1
f 82//1 81//1 90//1
f 83//1 82//1 91//1
f 84//1 83//1 92//1
f 85//1 84//1 93//1
f 86//1 19//1 20//1
f 87//1 86//1 95//1
f 88//1 87//1 96//1
f 89//1 88//1 97//1
f 90//1 89//1 98//1
f 91//1 90//1 99//1
f 92//1 91//1 100//1
f 93//1 92//1 101//1
f 94//1 93//1 102//1
f 95//1 20//1 21//1
f 96//1 95//1 104//1
f 97//1 96//1 105//1
f 98//1 97//1 106//1
f 99//1 98//1 107//1
f 100//1 99//1 108//1
f 101//1 100//1 109//1
f 102//1 101//1 110//1
f 103//1 102//1 111//1
f 104//1 21//1 22//1
f 105//1 104//1 113//1
f 106//1 105//1 114//1
f 107//1 106//1 115//1
f 108//1 107//1 116//1
f 109//1 108//1 117//1
f 110//1 109//1 118//1
f 111//1 110//1 119//1
f 112//1 111//1 120//1
f 113//1 22//1 2//1
f 114//1 113//1 23//1
f 115//1 114//1 24//1
f 116//1 115//1 25//1
f 117//1 116//1 26//1
f 118//1 117//1 27//1
f 119//1 118//1 28//1
f 120//1 119//1 29//1
f 121//1 120//1 30//1
f 32//1 31//1 4//1
f 3//1 49//1 40//1
f 40//1 58//1 39//1
f 39//1 67//1 38//1
f 38//1 76//1 37//1
f 37//1 85//1 36//1
f 36//1 94//1 35//1
f 35//1 103//1 34//1
f 34//1 112//1 33//1
f 33//1 121//1 32//1
f 13//1 14//1 41//1
f 12//1 41//1 42//1
f 11//1 42//1 43//1
f 11//1 44//1 10//1
f 9//1 44//1 45//1
f 8//1 45//1 46//1
f 8//1 47//1 7//1
f 6//1 47//1 48//1
f 5//1 48//1 49//1
f 41//1 15//1 50//1
f 42//1 50//1 51//1
f 43//1 51//1 52//1
f 44//1 52//1 53//1
f 45//1 53//1 54//1
f 46//1 54//1 55//1
f 47//1 55//1 56//1
f 48//1 56//1 57//1
f 49//1 57//1 58//1
f 50//1 16//1 59//1
f 51//1 59//1 60//1
f 52//1 60//1 61//1
f 53//1 61//1 62//1
f 54//1 62//1 63//1
f 55//1 63//1 64//1
f 56//1 64//1 65//1
f 57//1 65//1 66//1
f 58//1 66//1 67//1
f 59//1 17//1 68//1
f 60//1 68//1 69//1
f 61//1 69//1 70//1
f 62//1 70//1 71//1
f 63//1 71//1 72//1
f 64//1 72//1 73//1
f 65//1 73//1 74//1
f 66//1 74//1 75//1
f 67//1 75//1 76//1
f 68//1 18//1 77//1
f 69//1 77//1 78//1
f 70//1 78//1 79//1
f 71//1 79//1 80//1
f 72//1 80//1 81//1
f 73//1 81//1 82//1
f 74//1 82//1 83//1
f 75//1 83//1 84//1
f 76//1 84//1 85//1
f 77//1 19//1 86//1
f 78//1 86//1 87//1
f 79//1 87//1 88//1
f 80//1 88//1 89//1
f 81//1 89//1 90//1
f 82//1 90//1 91//1
f 83//1 91//1 92//1
f 84//1 92//1 93//1
f 85//1 93//1 94//1
f 86//1 20//1 95//1
f 87//1 95//1 96//1
f 88//1 96//1 97//1
f 89//1 97//1 98//1
f 90//1 98//1 99//1
f 91//1 99//1 100//1
f 92//1 100//1 101//1
f 93//1 101//1 102//1
f 94//1 102//1 103//1
f 95//1 21//1 104//1
f 96//1 104//1 105//1
f 97//1 105//1 106//1
f 98//1 106//1 107//1
f 99//1 107//1 108//1
f 100//1 108//1 109//1
f 101//1 109//1 110//1
f 102//1 110//1 111//1
f 103//1 111//1 112//1
f 104//1 22//1 113//1
f 105//1 113//1 114//1
f 106//1 114//1 115//1
f 107//1 115//1 116//1
f 108//1 116//1 117//1
f 109//1 117//1 118//1
f 110//1 118//1 119//1
f 111//1 119//1 120//1
f 112//1 120//1 121//1
f 113//1 2//1 23//1
f 114//1 23//1 24//1
f 115//1 24//1 25//1
f 116//1 25//1 26//1
f 117//1 26//1 27//1
f 118//1 27//1 28//1
f 119//1 28//1 29//1
f 120//1 29//1 30//1
f 121//1 30//1 31//1
