# Blender v2.79 (sub 0) OBJ File: ''
# www.blender.org
mtllib test_ramp.mtl
o Plane
v -3.378920 2.769818 -7.603402
v 3.786016 2.855217 -7.226201
v -3.599555 -3.529808 7.226202
v 3.412983 -3.158946 7.226201
v -3.578447 -2.606762 5.160391
v -2.874834 -1.242672 3.148943
v -2.857133 -0.065156 1.311136
v -2.857133 0.554531 -0.939734
v -2.875268 1.377938 -3.510089
v -3.056245 1.787772 -6.282001
v -2.439125 2.729437 -7.669233
v -1.380992 2.764789 -7.603402
v -0.326107 2.802470 -7.441965
v 0.624089 2.830323 -7.277781
v 1.740358 2.841879 -7.226202
v 2.889280 2.814831 -7.226201
v 3.226658 1.914329 -5.161572
v 2.879788 1.184187 -3.161543
v 2.644927 0.359546 -1.111253
v 2.641939 -0.451278 1.032314
v 2.868144 -1.251333 3.075670
v 3.400722 -2.153889 5.144484
v 2.670616 -3.158746 7.226201
v 1.781475 -3.148805 7.225998
v 0.669886 -3.139892 7.225448
v -0.687263 -3.252056 7.225998
v -1.944389 -3.459020 7.226201
v -2.882001 -3.543416 7.226201
v -2.216343 1.637626 -6.386776
v -2.090291 1.234599 -3.618865
v -2.040809 0.501614 -0.936485
v -2.040809 0.053929 1.443534
v -2.065686 -1.045263 3.198501
v -2.839220 -2.517394 5.144484
v -1.285655 1.571617 -6.173641
v -1.274523 1.045925 -3.618233
v -1.224486 0.293292 -1.002226
v -1.224486 0.000516 1.498704
v -1.231115 -0.856502 3.214904
v -1.883183 -2.285792 5.118646
v -0.333393 1.570688 -5.800049
v -0.425003 0.926611 -3.548784
v -0.408162 0.116924 -1.111764
v -0.408162 -0.149528 1.436681
v -0.408162 -0.766016 3.177514
v -0.653732 -1.984724 5.095142
v 0.654863 1.658673 -5.483705
v 0.419927 0.840170 -3.441270
v 0.408162 0.074915 -1.215949
v 0.408162 -0.276719 1.294409
v 0.408162 -0.811197 3.103859
v 0.643366 -1.858091 5.085495
v 1.575509 1.702510 -5.228137
v 1.255225 0.804592 -3.343647
v 1.183923 0.140059 -1.260114
v 1.180575 -0.337777 1.144695
v 1.226557 -0.962222 3.043977
v 1.726743 -1.906322 5.095142
v 2.432962 1.763268 -5.161572
v 2.078049 0.946079 -3.257139
v 1.893703 0.241364 -1.208773
v 1.881266 -0.417131 1.049488
v 2.053188 -1.119092 3.049322
v 2.634120 -2.021648 5.118646
v 3.561952 -2.705807 6.231078
v -3.785430 -3.168484 6.232575
v -3.094297 -3.191531 6.231078
v -2.097199 -3.043003 6.220862
v -0.717056 -2.725473 6.209090
v 0.752909 -2.548080 6.204039
v 1.929305 -2.576975 6.209090
v 2.841248 -2.641248 6.220862
v -3.165920 -1.946405 4.124628
v 3.081064 -1.659811 4.101747
v -2.374108 -1.774218 4.103408
v -1.469729 -1.518480 4.080802
v -0.502688 -1.325914 4.052515
v 0.483856 -1.292010 4.031337
v 1.398254 -1.361663 4.042538
v 2.276206 -1.500961 4.070200
v -2.857133 -0.604660 2.263353
v 2.839827 -0.881372 2.058701
v -2.040809 -0.434497 2.373166
v -1.224486 -0.307131 2.412608
v -0.408162 -0.317005 2.358142
v 0.408162 -0.428434 2.239428
v 1.224486 -0.610315 2.115504
v 2.032352 -0.797836 2.049314
v -2.857133 0.293686 0.226995
v 2.492873 -0.019125 -0.021665
v -2.040809 0.282380 0.323763
v -1.224486 0.072615 0.327210
v -0.408162 -0.160047 0.239011
v 0.405356 -0.215832 0.102349
v 1.112398 -0.140762 -0.017142
v 1.762516 -0.066114 -0.062851
v -2.857133 0.878829 -2.102547
v 2.843067 0.772886 -2.167305
v -2.040809 0.785834 -2.189349
v -1.224486 0.652737 -2.284283
v -0.408162 0.519778 -2.366351
v 0.408162 0.444445 -2.424940
v 1.224486 0.477839 -2.386142
v 2.039015 0.614795 -2.283903
v -2.936693 1.621654 -5.043398
v 3.024098 1.543505 -4.136837
v -2.173648 1.432019 -5.100235
v -1.356447 1.221833 -4.927593
v -0.419732 1.153122 -4.683524
v 0.531195 1.173738 -4.462678
v 1.403264 1.176841 -4.252803
v 2.238009 1.304069 -4.178001
v -3.264038 2.190867 -7.052835
v 3.629570 2.322920 -6.193887
v -2.361267 2.118873 -7.154451
v -1.325563 2.108924 -7.015837
v -0.292161 2.141379 -6.728321
v 0.696369 2.251262 -6.440253
v 1.749917 2.261287 -6.222116
v 2.803375 2.263273 -6.193887
vt 0.593210 0.879953
vt 0.562762 0.913812
vt 0.627167 0.939481
vt 0.051790 0.712191
vt -0.004186 0.687806
vt -0.004157 0.732658
vt 0.138800 0.741200
vt 0.058910 0.754207
vt 0.282100 0.767294
vt 0.143840 0.779334
vt 0.267561 0.807503
vt 0.390835 0.843056
vt 0.418181 0.798585
vt 0.485700 0.883166
vt 0.516120 0.841971
vt 0.612603 0.144281
vt 0.558345 0.082886
vt 0.550220 0.121066
vt 0.466431 0.182717
vt 0.381437 0.268721
vt 0.465576 0.292443
vt 0.351972 0.321457
vt 0.317263 0.374423
vt 0.387440 0.407419
vt 0.343904 0.477757
vt 0.281322 0.440270
vt 0.260950 0.485375
vt 0.226690 0.517851
vt 0.172408 0.568002
vt 0.258754 0.589984
vt 0.100561 0.614121
vt 0.032890 0.651146
vt 0.100984 0.672197
vt 0.666650 0.192506
vt 0.601028 0.176267
vt 0.543374 0.214654
vt 0.544830 0.318635
vt 0.431703 0.347402
vt 0.475689 0.417492
vt 0.321083 0.527993
vt 0.366691 0.555187
vt 0.303443 0.552272
vt 0.331152 0.610085
vt 0.182029 0.633192
vt 0.199634 0.690351
vt 0.635324 0.216835
vt 0.680130 0.275229
vt 0.601709 0.249322
vt 0.611574 0.353366
vt 0.511556 0.368918
vt 0.557403 0.432759
vt 0.421349 0.484572
vt 0.429867 0.570048
vt 0.355367 0.579901
vt 0.386745 0.627883
vt 0.277166 0.648134
vt 0.324011 0.708789
vt 0.724335 0.257644
vt 0.745244 0.350809
vt 0.652161 0.300726
vt 0.672781 0.395098
vt 0.586793 0.391832
vt 0.619697 0.462409
vt 0.507423 0.491104
vt 0.499671 0.593900
vt 0.453348 0.632788
vt 0.397322 0.601926
vt 0.362140 0.665261
vt 0.434171 0.737295
vt 0.798653 0.330785
vt 0.803092 0.425030
vt 0.707901 0.366408
vt 0.726010 0.443992
vt 0.700132 0.471464
vt 0.651120 0.422662
vt 0.572795 0.518684
vt 0.565808 0.625024
vt 0.442086 0.656797
vt 0.514514 0.690953
vt 0.508845 0.728964
vt 0.437822 0.691610
vt 0.854767 0.417962
vt 0.849693 0.496023
vt 0.757413 0.431298
vt 0.772823 0.513477
vt 0.743779 0.542262
vt 0.666538 0.508457
vt 0.656713 0.606738
vt 0.616747 0.560284
vt 0.533872 0.662270
vt 0.589574 0.728505
vt 0.580296 0.771696
vt 0.519171 0.779135
vt 0.903526 0.506907
vt 0.896394 0.566305
vt 0.807690 0.498911
vt 0.818447 0.602914
vt 0.704424 0.566096
vt 0.744332 0.634505
vt 0.703800 0.659270
vt 0.631518 0.654590
vt 0.618982 0.694373
vt 0.658116 0.771620
vt 0.650121 0.814230
vt 0.592349 0.822837
vt 0.657398 0.863770
vt 0.690316 0.697853
vt 0.854768 0.583213
vt 0.948730 0.491229
vt 0.950083 0.570777
vt 0.901865 0.393519
vt 0.853683 0.300558
vt 0.802964 0.223109
vt 0.739924 0.142061
vt 0.667285 0.073797
vt 0.604728 0.004549
vt 0.654897 0.911232
vt 0.786383 0.621246
vt 0.682558 0.739055
vt 0.995298 0.561168
vn 0.0002 0.8891 0.4577
vn 0.0321 0.9412 0.3363
vn -0.1341 0.9249 0.3557
vn -0.2022 0.8937 0.4005
vn -0.0729 0.8848 0.4603
vn 0.0067 0.8650 0.5017
vn 0.0096 0.8710 0.4912
vn 0.1201 0.8927 0.4344
vn 0.1973 0.9694 0.1462
vn 0.0613 0.9614 0.2681
vn -0.0241 0.9491 0.3141
vn -0.2279 0.7922 0.5661
vn -0.0925 0.8559 0.5088
vn -0.0640 0.8401 0.5387
vn 0.2237 0.9677 0.1164
vn 0.2577 0.9423 0.2138
vn 0.0505 0.9786 0.1996
vn -0.1905 0.7918 0.5802
vn -0.1889 0.8372 0.5132
vn -0.2083 0.8200 0.5330
vn 0.1280 0.9840 0.1242
vn 0.2373 0.9354 0.2622
vn 0.1849 0.9809 0.0604
vn -0.0650 0.8236 0.5634
vn -0.1916 0.8241 0.5330
vn -0.2347 0.8327 0.5015
vn 0.0752 0.9778 0.1955
vn 0.0877 0.9485 0.3046
vn 0.1525 0.9883 -0.0087
vn 0.1863 0.8616 0.4722
vn -0.0789 0.8479 0.5243
vn -0.1821 0.8394 0.5121
vn 0.0042 0.9505 0.3108
vn -0.0529 0.9550 0.2919
vn 0.0884 0.9948 0.0506
vn 0.1946 0.8969 0.3971
vn 0.0616 0.8832 0.4650
vn -0.0988 0.8747 0.4744
vn -0.1942 0.9185 0.3445
vn -0.1929 0.9417 0.2755
vn -0.1004 0.9800 0.1721
vn 0.1726 0.9212 0.3488
vn 0.1289 0.8966 0.4237
vn -0.1731 0.9093 0.3783
vn -0.3043 0.9045 0.2988
vn -0.1861 0.9357 0.2998
vn -0.0784 0.9483 0.3076
vn 0.1433 0.9431 0.3000
vn 0.1631 0.9047 0.3936
vn 0.0964 0.8604 0.5005
vn 0.0333 0.8521 0.5224
vn -0.0984 0.8312 0.5472
vn -0.1856 0.8264 0.5317
vn -0.1224 0.8560 0.5023
vn 0.0305 0.8830 0.4685
vn 0.1351 0.8743 0.4661
vn 0.1417 0.9369 0.3195
vn 0.1732 0.9243 0.3400
vn 0.1940 0.8773 0.4390
vn 0.0952 0.8338 0.5438
vn -0.1434 0.8049 0.5758
vn -0.2106 0.7951 0.5687
vn -0.1643 0.8226 0.5443
vn 0.0499 0.9359 0.3488
vn 0.2384 0.9378 0.2525
vn 0.2371 0.9592 0.1540
vn 0.1583 0.9715 0.1766
vn 0.0327 0.9472 0.3189
vn 0.0265 0.8849 0.4649
vn -0.2404 0.8445 0.4785
vn -0.1808 0.9549 0.2355
vn -0.1530 0.9658 0.2094
vn -0.0696 0.9742 0.2147
vn 0.1004 0.9747 0.1999
vn 0.2863 0.9452 0.1569
vn 0.2448 0.9552 0.1662
vn -0.0123 0.9758 0.2182
vn -0.3042 0.9054 0.2960
vn -0.1927 0.9305 0.3114
vn -0.0027 0.9319 0.3628
vn 0.1099 0.9403 0.3220
vn 0.1813 0.9451 0.2718
vn 0.1867 0.9392 0.2884
vn 0.1414 0.9336 0.3292
vn -0.2892 0.8881 0.3573
vn -0.1738 0.8794 0.4433
vn -0.1034 0.9032 0.4165
vn -0.0996 0.9345 0.3418
vn -0.1024 0.9592 0.2634
vn 0.2171 0.9650 0.1470
vn 0.2472 0.9632 0.1053
vn -0.0637 0.8824 0.4662
vn -0.0150 0.8655 0.5006
vn -0.1260 0.8109 0.5715
vn -0.2705 0.6998 0.6611
vn -0.2246 0.6396 0.7351
vn -0.0966 0.6344 0.7670
vn 0.0799 0.6952 0.7144
vn 0.0749 0.9033 0.4225
vn 0.0179 0.9438 0.3299
vn -0.0825 0.9164 0.3917
vn -0.1443 0.8770 0.4584
vn -0.1026 0.8643 0.4924
vn 0.0193 0.8703 0.4922
vn 0.0563 0.8838 0.4645
vn 0.2123 0.8455 0.4900
vn 0.2476 0.9621 0.1143
vn 0.1334 0.9665 0.2193
vn -0.1727 0.9651 0.1969
vn -0.2404 0.7837 0.5727
vn -0.1679 0.8363 0.5220
vn -0.0638 0.8399 0.5389
vn 0.2244 0.9676 0.1160
vn 0.1851 0.9462 0.2653
vn 0.2482 0.9669 0.0595
vn -0.1542 0.8158 0.5574
vn -0.2200 0.8242 0.5217
vn -0.1686 0.8430 0.5108
vn 0.0209 0.9804 0.1958
vn 0.1827 0.9361 0.3006
vn 0.2732 0.9619 -0.0084
vn 0.0426 0.8762 0.4801
vn -0.1533 0.8453 0.5119
vn -0.2391 0.8300 0.5038
vn -0.0903 0.9496 0.3003
vn 0.1086 0.9507 0.2906
vn 0.0768 0.9958 0.0507
vn 0.0868 0.9109 0.4033
vn -0.0200 0.8796 0.4754
vn -0.1063 0.8746 0.4730
vn -0.0910 0.9267 0.3646
vn -0.0641 0.9565 0.2846
vn -0.0754 0.9824 0.1710
vn 0.2535 0.9047 0.3423
vn 0.0357 0.8921 0.4505
vn -0.0133 0.9018 0.4320
vn -0.1711 0.9280 0.3310
vn -0.1562 0.9394 0.3052
vn 0.1459 0.9478 0.2835
vn 0.2389 0.9259 0.2925
vn 0.1042 0.9045 0.4136
vn -0.0676 0.9364 0.3443
vn -0.2926 0.9105 0.2921
vn -0.2271 0.9206 0.3177
vn 0.0500 0.9266 0.3728
vn 0.0930 0.9365 0.3381
vn 0.1440 0.9106 0.3873
vn 0.0554 0.8748 0.4813
vn 0.0189 0.8581 0.5132
vn -0.0786 0.8450 0.5289
vn -0.1911 0.8223 0.5360
vn -0.1858 0.8264 0.5316
vn -0.0925 0.8557 0.5092
vn 0.0738 0.8935 0.4429
vn 0.1699 0.9272 0.3339
vn 0.1386 0.9371 0.3203
vn 0.0664 0.9303 0.3607
vn -0.0206 0.8869 0.4615
vn -0.0686 0.8437 0.5324
vn -0.1930 0.8044 0.5618
vn -0.2283 0.7947 0.5624
vn 0.0914 0.9246 0.3698
vn 0.1506 0.9312 0.3318
vn 0.1265 0.9565 0.2628
vn 0.1786 0.9715 0.1560
vn 0.1909 0.9658 0.1755
vn -0.1612 0.9354 0.3149
vn -0.2004 0.8673 0.4557
vn -0.0787 0.9450 0.3174
vn -0.0933 0.9642 0.2481
vn -0.0669 0.9741 0.2162
vn 0.0775 0.9736 0.2149
vn 0.2321 0.9529 0.1954
vn 0.2561 0.9536 0.1583
vn 0.0631 0.9832 0.1710
vn -0.2303 0.9022 0.3647
vn -0.1953 0.9308 0.3090
vn -0.0539 0.9456 0.3209
vn 0.0490 0.9305 0.3629
vn 0.1058 0.9408 0.3222
vn 0.2169 0.9385 0.2685
vn 0.2104 0.9348 0.2862
vn -0.1782 0.9360 0.3035
vn -0.0959 0.9091 0.4054
vn -0.1655 0.8801 0.4451
vn -0.2073 0.8932 0.3991
vn -0.0221 0.9370 0.3487
vn 0.0063 0.9627 0.2706
vn 0.1920 0.9701 0.1487
vn -0.0401 0.8905 0.4531
vn 0.0207 0.8811 0.4725
vn -0.0321 0.8651 0.5005
vn -0.1225 0.8114 0.5715
vn -0.1295 0.7243 0.6772
vn -0.0685 0.6625 0.7459
vn 0.1360 0.6487 0.7488
usemtl None
s off
f 72/1/1 23/2/1 4/3/1
f 67/4/2 66/5/2 3/6/2
f 68/7/3 67/4/3 28/8/3
f 69/9/4 68/7/4 27/10/4
f 69/9/5 26/11/5 25/12/5
f 70/13/6 25/12/6 24/14/6
f 71/15/7 24/14/7 23/2/7
f 115/16/8 113/17/8 10/18/8
f 105/19/9 9/20/9 30/21/9
f 97/22/10 8/23/10 31/24/10
f 91/25/11 89/26/11 7/27/11
f 81/28/12 6/29/12 33/30/12
f 73/31/13 5/32/13 34/33/13
f 116/34/14 115/16/14 29/35/14
f 107/36/15 30/21/15 36/37/15
f 99/38/16 31/24/16 37/39/16
f 91/25/17 32/40/17 38/41/17
f 83/42/18 33/30/18 39/43/18
f 75/44/19 34/33/19 40/45/19
f 116/34/20 35/46/20 41/47/20
f 108/48/21 36/37/21 42/49/21
f 100/50/22 37/39/22 43/51/22
f 92/52/23 38/41/23 44/53/23
f 84/54/24 39/43/24 45/55/24
f 76/56/25 40/45/25 46/57/25
f 117/58/26 41/47/26 47/59/26
f 109/60/27 42/49/27 48/61/27
f 101/62/28 43/51/28 49/63/28
f 93/64/29 44/53/29 50/65/29
f 86/66/30 85/67/30 45/55/30
f 77/68/31 46/57/31 52/69/31
f 118/70/32 47/59/32 53/71/32
f 110/72/33 48/61/33 54/73/33
f 103/74/34 102/75/34 49/63/34
f 94/76/35 50/65/35 56/77/35
f 86/66/36 51/78/36 57/79/36
f 79/80/37 78/81/37 52/69/37
f 119/82/38 53/71/38 59/83/38
f 111/84/39 54/73/39 60/85/39
f 104/86/40 103/74/40 55/87/40
f 96/88/41 95/89/41 56/77/41
f 87/90/42 57/79/42 63/91/42
f 80/92/43 79/80/43 58/93/43
f 120/94/44 59/83/44 17/95/44
f 112/96/45 60/85/45 18/97/45
f 104/86/46 61/98/46 19/99/46
f 90/100/47 96/88/47 62/101/47
f 88/102/48 63/91/48 21/103/48
f 74/104/49 80/92/49 64/105/49
f 64/105/50 58/93/50 71/15/50
f 58/93/51 52/69/51 70/13/51
f 46/57/52 69/9/52 70/13/52
f 40/45/53 68/7/53 69/9/53
f 34/33/54 67/4/54 68/7/54
f 5/32/55 66/5/55 67/4/55
f 22/106/56 64/105/56 72/1/56
f 21/103/57 63/91/57 80/92/57
f 63/91/58 57/79/58 79/80/58
f 57/79/59 51/78/59 78/81/59
f 51/78/60 45/55/60 77/68/60
f 39/43/61 76/56/61 77/68/61
f 33/30/62 75/44/62 76/56/62
f 6/29/63 73/31/63 75/44/63
f 20/107/64 62/101/64 88/102/64
f 56/77/65 87/90/65 88/102/65
f 50/65/66 86/66/66 87/90/66
f 44/53/67 85/67/67 86/66/67
f 38/41/68 84/54/68 85/67/68
f 38/41/69 32/40/69 83/42/69
f 7/27/70 81/28/70 83/42/70
f 19/99/71 61/98/71 96/88/71
f 61/98/72 55/87/72 95/89/72
f 55/87/73 49/63/73 94/76/73
f 43/51/74 93/64/74 94/76/74
f 37/39/75 92/52/75 93/64/75
f 31/24/76 91/25/76 92/52/76
f 8/23/77 89/26/77 91/25/77
f 18/97/78 60/85/78 104/86/78
f 60/85/79 54/73/79 103/74/79
f 54/73/80 48/61/80 102/75/80
f 42/49/81 101/62/81 102/75/81
f 36/37/82 100/50/82 101/62/82
f 30/21/83 99/38/83 100/50/83
f 9/20/84 97/22/84 99/38/84
f 59/83/85 112/96/85 106/108/85
f 53/71/86 111/84/86 112/96/86
f 47/59/87 110/72/87 111/84/87
f 41/47/88 109/60/88 110/72/88
f 41/47/89 35/46/89 108/48/89
f 29/35/90 107/36/90 108/48/90
f 10/18/91 105/19/91 107/36/91
f 16/109/92 120/94/92 114/110/92
f 15/111/93 119/82/93 120/94/93
f 14/112/94 118/70/94 119/82/94
f 13/113/95 117/58/95 118/70/95
f 12/114/96 116/34/96 117/58/96
f 11/115/97 115/16/97 116/34/97
f 11/115/98 1/116/98 113/17/98
f 72/1/99 4/3/99 65/117/99
f 67/4/100 3/6/100 28/8/100
f 68/7/101 28/8/101 27/10/101
f 69/9/102 27/10/102 26/11/102
f 69/9/103 25/12/103 70/13/103
f 70/13/104 24/14/104 71/15/104
f 71/15/105 23/2/105 72/1/105
f 115/16/106 10/18/106 29/35/106
f 105/19/107 30/21/107 107/36/107
f 97/22/108 31/24/108 99/38/108
f 91/25/109 7/27/109 32/40/109
f 81/28/110 33/30/110 83/42/110
f 73/31/111 34/33/111 75/44/111
f 116/34/112 29/35/112 35/46/112
f 107/36/113 36/37/113 108/48/113
f 99/38/114 37/39/114 100/50/114
f 91/25/115 38/41/115 92/52/115
f 83/42/116 39/43/116 84/54/116
f 75/44/117 40/45/117 76/56/117
f 116/34/118 41/47/118 117/58/118
f 108/48/119 42/49/119 109/60/119
f 100/50/120 43/51/120 101/62/120
f 92/52/121 44/53/121 93/64/121
f 84/54/122 45/55/122 85/67/122
f 76/56/123 46/57/123 77/68/123
f 117/58/124 47/59/124 118/70/124
f 109/60/125 48/61/125 110/72/125
f 101/62/126 49/63/126 102/75/126
f 93/64/127 50/65/127 94/76/127
f 86/66/128 45/55/128 51/78/128
f 77/68/129 52/69/129 78/81/129
f 118/70/130 53/71/130 119/82/130
f 110/72/131 54/73/131 111/84/131
f 103/74/132 49/63/132 55/87/132
f 94/76/133 56/77/133 95/89/133
f 86/66/134 57/79/134 87/90/134
f 79/80/135 52/69/135 58/93/135
f 119/82/136 59/83/136 120/94/136
f 111/84/137 60/85/137 112/96/137
f 104/86/138 55/87/138 61/98/138
f 96/88/139 56/77/139 62/101/139
f 87/90/140 63/91/140 88/102/140
f 80/92/141 58/93/141 64/105/141
f 120/94/142 17/95/142 114/110/142
f 112/96/143 18/97/143 106/108/143
f 104/86/144 19/99/144 98/118/144
f 90/100/145 62/101/145 20/107/145
f 88/102/146 21/103/146 82/119/146
f 74/104/147 64/105/147 22/106/147
f 64/105/148 71/15/148 72/1/148
f 58/93/149 70/13/149 71/15/149
f 46/57/150 70/13/150 52/69/150
f 40/45/151 69/9/151 46/57/151
f 34/33/152 68/7/152 40/45/152
f 5/32/153 67/4/153 34/33/153
f 22/106/154 72/1/154 65/117/154
f 21/103/155 80/92/155 74/104/155
f 63/91/156 79/80/156 80/92/156
f 57/79/157 78/81/157 79/80/157
f 51/78/158 77/68/158 78/81/158
f 39/43/159 77/68/159 45/55/159
f 33/30/160 76/56/160 39/43/160
f 6/29/161 75/44/161 33/30/161
f 20/107/162 88/102/162 82/119/162
f 56/77/163 88/102/163 62/101/163
f 50/65/164 87/90/164 56/77/164
f 44/53/165 86/66/165 50/65/165
f 38/41/166 85/67/166 44/53/166
f 38/41/167 83/42/167 84/54/167
f 7/27/168 83/42/168 32/40/168
f 19/99/169 96/88/169 90/100/169
f 61/98/170 95/89/170 96/88/170
f 55/87/171 94/76/171 95/89/171
f 43/51/172 94/76/172 49/63/172
f 37/39/173 93/64/173 43/51/173
f 31/24/174 92/52/174 37/39/174
f 8/23/175 91/25/175 31/24/175
f 18/97/176 104/86/176 98/118/176
f 60/85/177 103/74/177 104/86/177
f 54/73/178 102/75/178 103/74/178
f 42/49/179 102/75/179 48/61/179
f 36/37/180 101/62/180 42/49/180
f 30/21/181 100/50/181 36/37/181
f 9/20/182 99/38/182 30/21/182
f 59/83/183 106/108/183 17/95/183
f 53/71/184 112/96/184 59/83/184
f 47/59/185 111/84/185 53/71/185
f 41/47/186 110/72/186 47/59/186
f 41/47/187 108/48/187 109/60/187
f 29/35/188 108/48/188 35/46/188
f 10/18/189 107/36/189 29/35/189
f 16/109/190 114/110/190 2/120/190
f 15/111/191 120/94/191 16/109/191
f 14/112/192 119/82/192 15/111/192
f 13/113/193 118/70/193 14/112/193
f 12/114/194 117/58/194 13/113/194
f 11/115/195 116/34/195 12/114/195
f 11/115/196 113/17/196 115/16/196
